<?xml version="1.0" encoding="utf-8"?>
<!-- Generator: Adobe Illustrator 15.0.2, SVG Export Plug-In . SVG Version: 6.00 Build 0)  -->
<!DOCTYPE svg PUBLIC "-//W3C//DTD SVG 1.1//EN" "http://www.w3.org/Graphics/SVG/1.1/DTD/svg11.dtd">
<svg version="1.1" xmlns="http://www.w3.org/2000/svg" xmlns:xlink="http://www.w3.org/1999/xlink" x="0px" y="0px" width="500px"
	 height="500px" viewBox="0 0 500 500" enable-background="new 0 0 500 500" xml:space="preserve">
<g id="Others" display="none">
	<g id="Meh" display="inline">
		<g id="Base_copy_3">
			<g>
				<g>
					<g>
						<g>
							<polygon fill="#FCD036" points="-887.483,-2297.641 -861.503,-2312.641 -835.522,-2297.641 -835.522,-2267.641 
								-861.503,-2252.641 -887.483,-2267.641 							"/>
							
								<polyline fill="none" stroke="#231F20" stroke-width="10" stroke-linecap="round" stroke-linejoin="round" stroke-miterlimit="10" points="
								-848.513,-2170.139 -848.513,-2230.141 -809.543,-2252.641 -809.543,-2312.641 -861.503,-2342.641 -913.465,-2312.641 
								-913.465,-2252.641 -874.489,-2230.139 -874.493,-2170.139 							"/>
						</g>
						
							<path fill="none" stroke="#231F20" stroke-width="2" stroke-linecap="round" stroke-linejoin="round" stroke-miterlimit="10" d="
							M-796.551-2312.641"/>
						
							<path fill="none" stroke="#231F20" stroke-width="2" stroke-linecap="round" stroke-linejoin="round" stroke-miterlimit="10" d="
							M-796.553-2199.473"/>
						
							<path fill="none" stroke="#231F20" stroke-width="2" stroke-linecap="round" stroke-linejoin="round" stroke-miterlimit="10" d="
							M-926.45-2312.643"/>
						
							<path fill="none" stroke="#231F20" stroke-width="2" stroke-linecap="round" stroke-linejoin="round" stroke-miterlimit="10" d="
							M-926.451-2199.473"/>
						
							<path fill="none" stroke="#231F20" stroke-width="2" stroke-linecap="round" stroke-linejoin="round" stroke-miterlimit="10" d="
							M-852.04-2166.23"/>
						
							<path fill="none" stroke="#231F20" stroke-width="2" stroke-linecap="round" stroke-linejoin="round" stroke-miterlimit="10" d="
							M-871.321-2166.23"/>
					</g>
					
						<circle fill="none" stroke="#231F20" stroke-width="2" stroke-linecap="round" stroke-linejoin="round" stroke-miterlimit="10" cx="-861.501" cy="-2282.641" r="5"/>
					
						<line fill="none" stroke="#231F20" stroke-width="2" stroke-linecap="round" stroke-linejoin="round" stroke-miterlimit="10" x1="-861.501" y1="-2277.641" x2="-861.501" y2="-2170.139"/>
				</g>
				<g>
					<g>
						<g>
							<polygon fill="#FCD036" points="-770.568,-2185.723 -796.549,-2170.723 -822.531,-2185.723 -822.531,-2215.723 
								-796.549,-2230.723 -770.568,-2215.723 							"/>
							
								<polyline fill="none" stroke="#231F20" stroke-width="10" stroke-linecap="round" stroke-linejoin="round" stroke-miterlimit="10" points="
								-809.541,-2313.224 -809.541,-2253.222 -848.511,-2230.723 -848.511,-2170.723 -796.549,-2140.723 -744.588,-2170.723 
								-744.588,-2230.723 -783.563,-2253.224 -783.563,-2313.224 							"/>
						</g>
						
							<path fill="none" stroke="#231F20" stroke-width="2" stroke-linecap="round" stroke-linejoin="round" stroke-miterlimit="10" d="
							M-861.501-2170.723"/>
						
							<path fill="none" stroke="#231F20" stroke-width="2" stroke-linecap="round" stroke-linejoin="round" stroke-miterlimit="10" d="
							M-861.501-2283.89"/>
						
							<path fill="none" stroke="#231F20" stroke-width="2" stroke-linecap="round" stroke-linejoin="round" stroke-miterlimit="10" d="
							M-731.603-2170.721"/>
						
							<path fill="none" stroke="#231F20" stroke-width="2" stroke-linecap="round" stroke-linejoin="round" stroke-miterlimit="10" d="
							M-731.603-2283.89"/>
						
							<path fill="none" stroke="#231F20" stroke-width="2" stroke-linecap="round" stroke-linejoin="round" stroke-miterlimit="10" d="
							M-806.014-2317.132"/>
						
							<path fill="none" stroke="#231F20" stroke-width="2" stroke-linecap="round" stroke-linejoin="round" stroke-miterlimit="10" d="
							M-786.73-2317.132"/>
					</g>
					
						<circle fill="none" stroke="#231F20" stroke-width="2" stroke-linecap="round" stroke-linejoin="round" stroke-miterlimit="10" cx="-796.552" cy="-2200.723" r="5.001"/>
					
						<line fill="none" stroke="#231F20" stroke-width="2" stroke-linecap="round" stroke-linejoin="round" stroke-miterlimit="10" x1="-796.551" y1="-2205.723" x2="-796.551" y2="-2313.224"/>
				</g>
				<g>
					<g>
						<g>
							<polygon fill="#FCD036" points="-900.471,-2185.139 -926.451,-2170.139 -952.433,-2185.139 -952.433,-2215.139 
								-926.451,-2230.139 -900.471,-2215.139 							"/>
							
								<polyline fill="none" stroke="#231F20" stroke-width="10" stroke-linecap="round" stroke-linejoin="round" stroke-miterlimit="10" points="
								-913.461,-2312.641 -913.465,-2252.641 -874.489,-2230.139 -874.489,-2170.139 -926.451,-2140.139 -978.413,-2170.139 
								-978.413,-2230.139 -939.442,-2252.639 -939.442,-2312.641 							"/>
						</g>
						
							<path fill="none" stroke="#231F20" stroke-width="2" stroke-linecap="round" stroke-linejoin="round" stroke-miterlimit="10" d="
							M-991.403-2170.139"/>
						
							<path fill="none" stroke="#231F20" stroke-width="2" stroke-linecap="round" stroke-linejoin="round" stroke-miterlimit="10" d="
							M-991.403-2283.307"/>
						
							<path fill="none" stroke="#231F20" stroke-width="2" stroke-linecap="round" stroke-linejoin="round" stroke-miterlimit="10" d="
							M-861.504-2170.137"/>
						
							<path fill="none" stroke="#231F20" stroke-width="2" stroke-linecap="round" stroke-linejoin="round" stroke-miterlimit="10" d="
							M-861.504-2283.307"/>
						
							<path fill="none" stroke="#231F20" stroke-width="2" stroke-linecap="round" stroke-linejoin="round" stroke-miterlimit="10" d="
							M-935.915-2316.549"/>
						
							<path fill="none" stroke="#231F20" stroke-width="2" stroke-linecap="round" stroke-linejoin="round" stroke-miterlimit="10" d="
							M-916.633-2316.549"/>
					</g>
					
						<circle fill="none" stroke="#231F20" stroke-width="2" stroke-linecap="round" stroke-linejoin="round" stroke-miterlimit="10" cx="-926.454" cy="-2200.141" r="5"/>
					
						<line fill="none" stroke="#231F20" stroke-width="2" stroke-linecap="round" stroke-linejoin="round" stroke-miterlimit="10" x1="-926.453" y1="-2205.141" x2="-926.453" y2="-2312.641"/>
				</g>
			</g>
			<g>
				<rect x="-971.254" y="-2124.889" fill="none" width="219.5" height="52.5"/>
				<path d="M-931.225-2080.79h-3.72v-18.72h-24.239v18.72h-3.72v-41.398h3.72v19.499h24.239v-19.499h3.72V-2080.79z"/>
				<path d="M-903.805-2086.55l-1.62,3.36c-2.22,2.219-5.34,3.239-8.82,3.239c-5.88,0-10.08-3.06-10.08-8.819
					c0-7.26,6.9-10.8,18.359-10.8h2.04v-1.14c0-1.439,0-2.641-0.12-3.9c-0.3-3.66-2.52-5.76-7.08-5.76c-4.38,0-7.5,2.34-7.98,7.26
					h-3.9c0.42-6.24,5.16-10.26,11.88-10.26c7.02,0,10.319,3.18,10.799,8.4c0.12,1.379,0.12,2.699,0.12,4.199v11.1
					c0,2.82,0.18,5.1,0.6,8.88h-3.72L-903.805-2086.55z M-903.925-2096.689c-8.939-0.66-16.319,1.5-16.319,7.619
					c0,4.021,2.52,6.18,7.14,6.18c5.52,0,9.179-4.199,9.179-10.139V-2096.689z"/>
				<path d="M-866.305-2090.689c-1.44,7.02-6.66,10.739-13.5,10.739c-7.92,0-14.1-5.46-14.1-16.679c0-10.5,6.78-16.74,14.759-16.74
					c7.32,0,12.18,4.5,13.14,11.221h-3.9c-1.08-5.34-4.26-8.28-9.359-8.28c-5.34,0-10.56,4.319-10.56,13.499
					c0,9.779,4.919,14.039,10.259,14.039c4.68,0,8.28-2.699,9.42-7.799H-866.305z"/>
				<path d="M-856.104-2091.949v11.159h-3.72v-44.099h3.72v28.799l16.26-16.439h4.859l-15.539,15.18l15.659,16.56h-5.16
					l-13.199-14.22L-856.104-2091.949z"/>
				<path d="M-793.227-2101.909v21.119h-6.72l-0.48-6.659l-1.859,4.319c-2.34,2.28-5.64,3.18-10.2,3.18
					c-11.52,0-18.779-8.159-18.779-21.299c0-13.56,8.88-21.779,20.34-21.779c10.979,0,16.979,5.94,18.059,13.859h-8.459
					c-1.021-4.739-4.2-7.68-9.72-7.68c-6.66,0-11.46,5.7-11.46,15.12c0,10.318,4.8,15.599,11.279,15.599
					c5.46,0,9.24-3.479,10.02-9.3h-8.819l-0.06-6.479H-793.227z"/>
				<path d="M-767.846-2115.709v34.919h-8.28v-34.919h-14.039v-6.479h36.358v6.479H-767.846z"/>
			</g>
		</g>
		<g id="Base_copy">
			<g>
				<g>
					<g>
						<g>
							<polygon fill="#FCD036" points="-881.601,-2588.404 -855.62,-2603.404 -829.64,-2588.404 -829.64,-2558.404 
								-855.62,-2543.404 -881.601,-2558.404 							"/>
							
								<polyline fill="none" stroke="#231F20" stroke-width="10" stroke-linecap="round" stroke-linejoin="round" stroke-miterlimit="10" points="
								-842.63,-2460.902 -842.63,-2520.904 -803.66,-2543.404 -803.66,-2603.404 -855.62,-2633.404 -907.582,-2603.404 
								-907.582,-2543.404 -868.606,-2520.902 -868.61,-2460.902 							"/>
						</g>
						<path fill="none" stroke="#231F20" stroke-width="2" stroke-miterlimit="10" d="M-790.668-2603.404"/>
						<path fill="none" stroke="#231F20" stroke-width="2" stroke-miterlimit="10" d="M-790.67-2490.236"/>
						<path fill="none" stroke="#231F20" stroke-width="2" stroke-miterlimit="10" d="M-920.567-2603.406"/>
						<path fill="none" stroke="#231F20" stroke-width="2" stroke-miterlimit="10" d="M-920.568-2490.236"/>
						<path fill="none" stroke="#231F20" stroke-width="2" stroke-miterlimit="10" d="M-846.157-2456.994"/>
						<path fill="none" stroke="#231F20" stroke-width="2" stroke-miterlimit="10" d="M-865.438-2456.994"/>
					</g>
					<circle fill="none" stroke="#231F20" stroke-width="2" stroke-miterlimit="10" cx="-855.618" cy="-2573.403" r="5"/>
					
						<line fill="none" stroke="#231F20" stroke-width="2" stroke-linecap="round" stroke-miterlimit="10" x1="-855.618" y1="-2568.403" x2="-855.618" y2="-2460.902"/>
				</g>
				<g>
					<g>
						<g>
							<polygon fill="#FCD036" points="-764.687,-2474.531 -790.667,-2459.531 -816.649,-2474.531 -816.649,-2504.531 
								-790.667,-2519.531 -764.687,-2504.531 							"/>
							
								<polyline fill="none" stroke="#231F20" stroke-width="10" stroke-linecap="round" stroke-linejoin="round" stroke-miterlimit="10" points="
								-803.659,-2602.033 -803.659,-2542.031 -842.629,-2519.531 -842.629,-2459.531 -790.667,-2429.531 -738.706,-2459.531 
								-738.706,-2519.531 -777.681,-2542.033 							"/>
						</g>
						<path fill="none" stroke="#231F20" stroke-width="2" stroke-miterlimit="10" d="M-855.619-2459.531"/>
						<path fill="none" stroke="#231F20" stroke-width="2" stroke-miterlimit="10" d="M-855.619-2572.699"/>
						<path fill="none" stroke="#231F20" stroke-width="2" stroke-miterlimit="10" d="M-725.721-2459.529"/>
						<path fill="none" stroke="#231F20" stroke-width="2" stroke-miterlimit="10" d="M-725.721-2572.699"/>
						<path fill="none" stroke="#231F20" stroke-width="2" stroke-miterlimit="10" d="M-800.132-2605.941"/>
						<path fill="none" stroke="#231F20" stroke-width="2" stroke-miterlimit="10" d="M-780.849-2605.941"/>
					</g>
					<circle fill="none" stroke="#231F20" stroke-width="2" stroke-miterlimit="10" cx="-790.67" cy="-2489.532" r="5.001"/>
					
						<line fill="none" stroke="#231F20" stroke-width="2" stroke-linecap="round" stroke-miterlimit="10" x1="-790.669" y1="-2494.532" x2="-790.669" y2="-2602.033"/>
				</g>
				<g>
					<g>
						<g>
							<polygon fill="#FCD036" points="-894.588,-2475.902 -920.568,-2460.902 -946.55,-2475.902 -946.55,-2505.902 
								-920.568,-2520.902 -894.588,-2505.902 							"/>
							
								<polyline fill="none" stroke="#231F20" stroke-width="10" stroke-linecap="round" stroke-linejoin="round" stroke-miterlimit="10" points="
								-933.56,-2543.401 -972.53,-2520.902 -972.53,-2460.902 -920.568,-2430.902 -868.606,-2460.902 -868.606,-2520.902 							
								"/>
						</g>
						<path fill="none" stroke="#231F20" stroke-width="2" stroke-miterlimit="10" d="M-985.521-2460.902"/>
						<path fill="none" stroke="#231F20" stroke-width="2" stroke-miterlimit="10" d="M-985.521-2574.069"/>
						<path fill="none" stroke="#231F20" stroke-width="2" stroke-miterlimit="10" d="M-855.621-2460.9"/>
						<path fill="none" stroke="#231F20" stroke-width="2" stroke-miterlimit="10" d="M-855.621-2574.069"/>
						<path fill="none" stroke="#231F20" stroke-width="2" stroke-miterlimit="10" d="M-930.032-2607.312"/>
						<path fill="none" stroke="#231F20" stroke-width="2" stroke-miterlimit="10" d="M-910.75-2607.312"/>
					</g>
					<circle fill="none" stroke="#231F20" stroke-width="2" stroke-miterlimit="10" cx="-920.571" cy="-2490.903" r="5"/>
					
						<line fill="none" stroke="#231F20" stroke-width="2" stroke-linecap="round" stroke-miterlimit="10" x1="-920.57" y1="-2495.903" x2="-920.57" y2="-2603.404"/>
				</g>
			</g>
			<g>
				<rect x="-965.371" y="-2415.652" fill="none" width="219.5" height="52.5"/>
				<path d="M-925.342-2371.553h-3.72v-18.719h-24.239v18.719h-3.72v-41.398h3.72v19.5h24.239v-19.5h3.72V-2371.553z"/>
				<path d="M-897.922-2377.313l-1.62,3.36c-2.22,2.22-5.34,3.24-8.82,3.24c-5.88,0-10.08-3.06-10.08-8.819
					c0-7.26,6.9-10.8,18.359-10.8h2.04v-1.14c0-1.439,0-2.64-0.12-3.899c-0.3-3.66-2.52-5.76-7.08-5.76c-4.38,0-7.5,2.34-7.98,7.26
					h-3.9c0.42-6.24,5.16-10.26,11.88-10.26c7.02,0,10.319,3.18,10.799,8.399c0.12,1.38,0.12,2.7,0.12,4.2v11.1
					c0,2.82,0.18,5.1,0.6,8.879h-3.72L-897.922-2377.313z M-898.042-2387.453c-8.939-0.66-16.319,1.5-16.319,7.62
					c0,4.02,2.52,6.18,7.14,6.18c5.52,0,9.179-4.2,9.179-10.14V-2387.453z"/>
				<path d="M-860.422-2381.453c-1.44,7.02-6.66,10.739-13.5,10.739c-7.92,0-14.1-5.459-14.1-16.679
					c0-10.5,6.78-16.739,14.759-16.739c7.32,0,12.18,4.5,13.14,11.22h-3.9c-1.08-5.34-4.26-8.28-9.359-8.28
					c-5.34,0-10.56,4.32-10.56,13.5c0,9.779,4.919,14.039,10.259,14.039c4.68,0,8.28-2.7,9.42-7.799H-860.422z"/>
				<path d="M-850.222-2382.713v11.16h-3.72v-44.098h3.72v28.799l16.26-16.439h4.859l-15.539,15.18l15.659,16.559h-5.16
					l-13.199-14.219L-850.222-2382.713z"/>
				<path d="M-787.344-2392.672v21.119h-6.72l-0.48-6.66l-1.859,4.32c-2.34,2.28-5.64,3.18-10.2,3.18
					c-11.52,0-18.779-8.16-18.779-21.299c0-13.56,8.88-21.779,20.34-21.779c10.979,0,16.979,5.94,18.059,13.859h-8.459
					c-1.021-4.74-4.2-7.68-9.72-7.68c-6.66,0-11.46,5.7-11.46,15.12c0,10.319,4.8,15.599,11.279,15.599
					c5.46,0,9.24-3.48,10.02-9.299h-8.819l-0.06-6.48H-787.344z"/>
				<path d="M-761.963-2406.472v34.918h-8.28v-34.918h-14.039v-6.48h36.358v6.48H-761.963z"/>
			</g>
		</g>
		<g id="Base_copy_2">
			<g>
				<g>
					<g>
						<g>
							<polygon fill="#FCD036" points="-1178.248,-2298.523 -1152.267,-2313.523 -1126.287,-2298.523 -1126.287,-2268.523 
								-1152.267,-2253.523 -1178.248,-2268.523 							"/>
							<polyline fill="none" stroke="#231F20" stroke-width="10" stroke-miterlimit="10" points="-1139.277,-2171.022 
								-1139.277,-2231.024 -1100.307,-2253.523 -1100.307,-2313.523 -1152.267,-2343.523 -1204.229,-2313.523 -1204.229,-2253.523 
								-1165.253,-2231.022 -1165.257,-2171.022 							"/>
						</g>
						<path fill="none" stroke="#231F20" stroke-width="2" stroke-miterlimit="10" d="M-1087.315-2313.523"/>
						<path fill="none" stroke="#231F20" stroke-width="2" stroke-miterlimit="10" d="M-1087.317-2200.356"/>
						<path fill="none" stroke="#231F20" stroke-width="2" stroke-miterlimit="10" d="M-1217.214-2313.525"/>
						<path fill="none" stroke="#231F20" stroke-width="2" stroke-miterlimit="10" d="M-1217.215-2200.356"/>
						<path fill="none" stroke="#231F20" stroke-width="2" stroke-miterlimit="10" d="M-1142.804-2167.114"/>
						<path fill="none" stroke="#231F20" stroke-width="2" stroke-miterlimit="10" d="M-1162.085-2167.114"/>
					</g>
				</g>
				<g>
					<g>
						<g>
							<polygon fill="#FCD036" points="-1061.333,-2186.605 -1087.313,-2171.605 -1113.295,-2186.605 -1113.295,-2216.605 
								-1087.313,-2231.605 -1061.333,-2216.605 							"/>
							<polyline fill="none" stroke="#231F20" stroke-width="10" stroke-miterlimit="10" points="-1100.305,-2314.107 
								-1100.305,-2254.105 -1139.275,-2231.605 -1139.275,-2171.605 -1087.313,-2141.605 -1035.352,-2171.605 -1035.352,-2231.605 
								-1074.327,-2254.107 -1074.327,-2314.107 							"/>
						</g>
						<path fill="none" stroke="#231F20" stroke-width="2" stroke-miterlimit="10" d="M-1152.265-2171.605"/>
						<path fill="none" stroke="#231F20" stroke-width="2" stroke-miterlimit="10" d="M-1152.265-2284.773"/>
						<path fill="none" stroke="#231F20" stroke-width="2" stroke-miterlimit="10" d="M-1022.366-2171.604"/>
						<path fill="none" stroke="#231F20" stroke-width="2" stroke-miterlimit="10" d="M-1022.366-2284.773"/>
						<path fill="none" stroke="#231F20" stroke-width="2" stroke-miterlimit="10" d="M-1096.778-2318.016"/>
						<path fill="none" stroke="#231F20" stroke-width="2" stroke-miterlimit="10" d="M-1077.495-2318.016"/>
					</g>
				</g>
				<g>
					<g>
						<g>
							<polygon fill="#FCD036" points="-1191.235,-2186.022 -1217.215,-2171.022 -1243.197,-2186.022 -1243.197,-2216.022 
								-1217.215,-2231.022 -1191.235,-2216.022 							"/>
							<polyline fill="none" stroke="#231F20" stroke-width="10" stroke-miterlimit="10" points="-1204.225,-2313.523 
								-1204.229,-2253.523 -1165.253,-2231.022 -1165.253,-2171.022 -1217.215,-2141.022 -1269.177,-2171.022 -1269.177,-2231.022 
								-1230.207,-2253.521 -1230.207,-2313.523 							"/>
						</g>
						<path fill="none" stroke="#231F20" stroke-width="2" stroke-miterlimit="10" d="M-1282.167-2171.022"/>
						<path fill="none" stroke="#231F20" stroke-width="2" stroke-miterlimit="10" d="M-1282.167-2284.189"/>
						<path fill="none" stroke="#231F20" stroke-width="2" stroke-miterlimit="10" d="M-1152.268-2171.021"/>
						<path fill="none" stroke="#231F20" stroke-width="2" stroke-miterlimit="10" d="M-1152.268-2284.189"/>
						<path fill="none" stroke="#231F20" stroke-width="2" stroke-miterlimit="10" d="M-1226.679-2317.432"/>
						<path fill="none" stroke="#231F20" stroke-width="2" stroke-miterlimit="10" d="M-1207.397-2317.432"/>
					</g>
				</g>
			</g>
			<g>
				<rect x="-1262.018" y="-2125.772" fill="none" width="219.5" height="52.5"/>
				<path d="M-1221.989-2081.674h-3.72v-18.719h-24.239v18.719h-3.72v-41.398h3.72v19.5h24.239v-19.5h3.72V-2081.674z"/>
				<path d="M-1194.569-2087.434l-1.62,3.36c-2.22,2.22-5.34,3.239-8.82,3.239c-5.88,0-10.08-3.059-10.08-8.818
					c0-7.26,6.9-10.801,18.359-10.801h2.04v-1.14c0-1.439,0-2.64-0.12-3.899c-0.3-3.66-2.52-5.76-7.08-5.76
					c-4.38,0-7.5,2.34-7.98,7.26h-3.9c0.42-6.24,5.16-10.26,11.88-10.26c7.02,0,10.319,3.18,10.799,8.399
					c0.12,1.38,0.12,2.7,0.12,4.2v11.1c0,2.82,0.18,5.1,0.6,8.879h-3.72L-1194.569-2087.434z M-1194.689-2097.572
					c-8.939-0.66-16.319,1.5-16.319,7.619c0,4.02,2.52,6.18,7.14,6.18c5.52,0,9.179-4.199,9.179-10.14V-2097.572z"/>
				<path d="M-1157.069-2091.572c-1.44,7.02-6.66,10.738-13.5,10.738c-7.92,0-14.1-5.459-14.1-16.679
					c0-10.499,6.78-16.739,14.759-16.739c7.32,0,12.18,4.5,13.14,11.22h-3.9c-1.08-5.34-4.26-8.28-9.359-8.28
					c-5.34,0-10.56,4.32-10.56,13.5c0,9.779,4.919,14.039,10.259,14.039c4.68,0,8.28-2.699,9.42-7.799H-1157.069z"/>
				<path d="M-1146.869-2092.833v11.159h-3.72v-44.098h3.72v28.799l16.26-16.439h4.859l-15.539,15.18l15.659,16.559h-5.16
					l-13.199-14.219L-1146.869-2092.833z"/>
				<path d="M-1083.991-2102.793v21.119h-6.72l-0.48-6.659l-1.859,4.319c-2.34,2.28-5.64,3.18-10.2,3.18
					c-11.52,0-18.779-8.159-18.779-21.299c0-13.559,8.88-21.779,20.34-21.779c10.979,0,16.979,5.94,18.059,13.859h-8.459
					c-1.021-4.739-4.2-7.68-9.72-7.68c-6.66,0-11.46,5.7-11.46,15.12c0,10.319,4.8,15.599,11.279,15.599
					c5.46,0,9.24-3.479,10.02-9.299h-8.819l-0.06-6.48H-1083.991z"/>
				<path d="M-1058.61-2116.592v34.918h-8.28v-34.918h-14.039v-6.48h36.358v6.48H-1058.61z"/>
			</g>
		</g>
	</g>
	<g id="Base" display="inline">
		<g>
			<g>
				<g>
					<g>
						<polygon fill="#FCD036" points="-577.017,-2588.404 -551.037,-2603.404 -525.056,-2588.404 -525.056,-2558.404 
							-551.037,-2543.404 -577.017,-2558.404 						"/>
						<polyline fill="none" stroke="#231F20" stroke-width="10" stroke-miterlimit="10" points="-538.046,-2460.902 
							-538.046,-2520.904 -499.077,-2543.404 -499.077,-2603.404 -551.037,-2633.404 -602.999,-2603.404 -602.999,-2543.404 
							-564.023,-2520.902 -564.027,-2460.902 						"/>
					</g>
					<path fill="none" stroke="#231F20" stroke-width="2" stroke-miterlimit="10" d="M-486.084-2603.404"/>
					<path fill="none" stroke="#231F20" stroke-width="2" stroke-miterlimit="10" d="M-486.086-2490.236"/>
					<path fill="none" stroke="#231F20" stroke-width="2" stroke-miterlimit="10" d="M-615.984-2603.406"/>
					<path fill="none" stroke="#231F20" stroke-width="2" stroke-miterlimit="10" d="M-615.985-2490.236"/>
					<path fill="none" stroke="#231F20" stroke-width="2" stroke-miterlimit="10" d="M-541.574-2456.994"/>
					<path fill="none" stroke="#231F20" stroke-width="2" stroke-miterlimit="10" d="M-560.855-2456.994"/>
				</g>
				<circle fill="none" stroke="#231F20" stroke-width="2" stroke-miterlimit="10" cx="-551.035" cy="-2573.403" r="5"/>
				
					<line fill="none" stroke="#231F20" stroke-width="2" stroke-linecap="round" stroke-miterlimit="10" x1="-551.035" y1="-2568.403" x2="-551.035" y2="-2460.902"/>
			</g>
			<g>
				<g>
					<g>
						<polygon fill="#FCD036" points="-460.102,-2476.485 -486.083,-2461.485 -512.065,-2476.485 -512.065,-2506.485 
							-486.083,-2521.485 -460.102,-2506.485 						"/>
						<polyline fill="none" stroke="#231F20" stroke-width="10" stroke-miterlimit="10" points="-499.075,-2603.987 
							-499.075,-2543.985 -538.044,-2521.485 -538.044,-2461.485 -486.083,-2431.485 -434.122,-2461.485 -434.122,-2521.485 
							-473.096,-2543.987 						"/>
					</g>
					<path fill="none" stroke="#231F20" stroke-width="2" stroke-miterlimit="10" d="M-551.035-2461.485"/>
					<path fill="none" stroke="#231F20" stroke-width="2" stroke-miterlimit="10" d="M-551.035-2574.653"/>
					<path fill="none" stroke="#231F20" stroke-width="2" stroke-miterlimit="10" d="M-421.136-2461.483"/>
					<path fill="none" stroke="#231F20" stroke-width="2" stroke-miterlimit="10" d="M-421.136-2574.653"/>
					<path fill="none" stroke="#231F20" stroke-width="2" stroke-miterlimit="10" d="M-495.547-2607.895"/>
					<path fill="none" stroke="#231F20" stroke-width="2" stroke-miterlimit="10" d="M-476.264-2607.895"/>
				</g>
				<circle fill="none" stroke="#231F20" stroke-width="2" stroke-miterlimit="10" cx="-486.085" cy="-2491.486" r="5.001"/>
				
					<line fill="none" stroke="#231F20" stroke-width="2" stroke-linecap="round" stroke-miterlimit="10" x1="-486.084" y1="-2496.486" x2="-486.084" y2="-2603.987"/>
			</g>
			<g>
				<g>
					<g>
						<polygon fill="#FCD036" points="-590.004,-2475.902 -615.985,-2460.902 -641.966,-2475.902 -641.966,-2505.902 
							-615.985,-2520.902 -590.004,-2505.902 						"/>
						<polyline fill="none" stroke="#231F20" stroke-width="10" stroke-miterlimit="10" points="-628.976,-2543.401 
							-667.947,-2520.902 -667.947,-2460.902 -615.985,-2430.902 -564.023,-2460.902 -564.023,-2520.902 -602.999,-2543.403 
							-602.995,-2603.404 						"/>
					</g>
					<path fill="none" stroke="#231F20" stroke-width="2" stroke-miterlimit="10" d="M-680.937-2460.902"/>
					<path fill="none" stroke="#231F20" stroke-width="2" stroke-miterlimit="10" d="M-680.937-2574.069"/>
					<path fill="none" stroke="#231F20" stroke-width="2" stroke-miterlimit="10" d="M-551.038-2460.9"/>
					<path fill="none" stroke="#231F20" stroke-width="2" stroke-miterlimit="10" d="M-551.038-2574.069"/>
					<path fill="none" stroke="#231F20" stroke-width="2" stroke-miterlimit="10" d="M-625.449-2607.312"/>
					<path fill="none" stroke="#231F20" stroke-width="2" stroke-miterlimit="10" d="M-606.167-2607.312"/>
				</g>
				<circle fill="none" stroke="#231F20" stroke-width="2" stroke-miterlimit="10" cx="-615.987" cy="-2490.903" r="5"/>
				
					<line fill="none" stroke="#231F20" stroke-width="2" stroke-linecap="round" stroke-miterlimit="10" x1="-615.987" y1="-2495.903" x2="-615.987" y2="-2603.404"/>
			</g>
		</g>
		<g>
			<rect x="-660.788" y="-2415.652" fill="none" width="219.5" height="52.5"/>
			<path d="M-620.759-2371.553h-3.72v-18.719h-24.239v18.719h-3.72v-41.398h3.72v19.5h24.239v-19.5h3.72V-2371.553z"/>
			<path d="M-593.339-2377.313l-1.62,3.36c-2.22,2.22-5.34,3.24-8.82,3.24c-5.88,0-10.08-3.06-10.08-8.819
				c0-7.26,6.9-10.8,18.359-10.8h2.04v-1.14c0-1.439,0-2.64-0.12-3.899c-0.3-3.66-2.52-5.76-7.08-5.76c-4.38,0-7.5,2.34-7.98,7.26
				h-3.9c0.42-6.24,5.16-10.26,11.88-10.26c7.02,0,10.319,3.18,10.799,8.399c0.12,1.38,0.12,2.7,0.12,4.2v11.1
				c0,2.82,0.18,5.1,0.6,8.879h-3.72L-593.339-2377.313z M-593.459-2387.453c-8.939-0.66-16.319,1.5-16.319,7.62
				c0,4.02,2.52,6.18,7.14,6.18c5.52,0,9.179-4.2,9.179-10.14V-2387.453z"/>
			<path d="M-555.839-2381.453c-1.44,7.02-6.66,10.739-13.5,10.739c-7.92,0-14.1-5.459-14.1-16.679
				c0-10.5,6.78-16.739,14.759-16.739c7.32,0,12.18,4.5,13.14,11.22h-3.9c-1.08-5.34-4.26-8.28-9.359-8.28
				c-5.34,0-10.56,4.32-10.56,13.5c0,9.779,4.919,14.039,10.259,14.039c4.68,0,8.28-2.7,9.42-7.799H-555.839z"/>
			<path d="M-545.639-2382.713v11.16h-3.72v-44.098h3.72v28.799l16.26-16.439h4.859l-15.539,15.18l15.659,16.559h-5.16
				l-13.199-14.219L-545.639-2382.713z"/>
			<path d="M-482.761-2392.672v21.119h-6.72l-0.48-6.66l-1.859,4.32c-2.34,2.28-5.64,3.18-10.2,3.18
				c-11.52,0-18.779-8.16-18.779-21.299c0-13.56,8.88-21.779,20.34-21.779c10.979,0,16.979,5.94,18.059,13.859h-8.459
				c-1.021-4.74-4.2-7.68-9.72-7.68c-6.66,0-11.46,5.7-11.46,15.12c0,10.319,4.8,15.599,11.279,15.599c5.46,0,9.24-3.48,10.02-9.299
				h-8.819l-0.06-6.48H-482.761z"/>
			<path d="M-457.38-2406.472v34.918h-8.28v-34.918h-14.039v-6.48h36.358v6.48H-457.38z"/>
		</g>
	</g>
	<g id="Base_copy_5" display="inline">
		<g>
			<g>
				<g>
					<g>
						<polygon fill="#FCD036" points="-605.723,-2588.404 -579.743,-2603.404 -553.762,-2588.404 -553.762,-2558.404 
							-579.743,-2543.404 -605.723,-2558.404 						"/>
						<polyline fill="none" stroke="#231F20" stroke-width="10" stroke-miterlimit="10" points="-566.752,-2460.902 
							-566.752,-2520.904 -527.783,-2543.404 -527.783,-2603.404 -579.743,-2633.404 -631.705,-2603.404 -631.705,-2543.404 
							-592.729,-2520.902 -592.733,-2460.902 						"/>
					</g>
					<path fill="none" stroke="#231F20" stroke-width="2" stroke-miterlimit="10" d="M-514.791-2603.404"/>
					<path fill="none" stroke="#231F20" stroke-width="2" stroke-miterlimit="10" d="M-514.792-2490.236"/>
					<path fill="none" stroke="#231F20" stroke-width="2" stroke-miterlimit="10" d="M-644.69-2603.406"/>
					<path fill="none" stroke="#231F20" stroke-width="2" stroke-miterlimit="10" d="M-644.691-2490.236"/>
					<path fill="none" stroke="#231F20" stroke-width="2" stroke-miterlimit="10" d="M-570.28-2456.994"/>
					<path fill="none" stroke="#231F20" stroke-width="2" stroke-miterlimit="10" d="M-589.561-2456.994"/>
				</g>
				<circle fill="none" stroke="#231F20" stroke-width="2" stroke-miterlimit="10" cx="-579.741" cy="-2573.403" r="5"/>
				
					<line fill="none" stroke="#231F20" stroke-width="2" stroke-linecap="round" stroke-miterlimit="10" x1="-579.741" y1="-2568.403" x2="-579.741" y2="-2460.902"/>
			</g>
			<g>
				<g>
					<g>
						<polygon fill="#FCD036" points="-488.808,-2476.485 -514.789,-2461.485 -540.771,-2476.485 -540.771,-2506.485 
							-514.789,-2521.485 -488.808,-2506.485 						"/>
						<polyline fill="none" stroke="#231F20" stroke-width="10" stroke-miterlimit="10" points="-527.781,-2603.987 
							-527.781,-2543.985 -566.75,-2521.485 -566.75,-2461.485 -514.789,-2431.485 -462.828,-2461.485 -462.828,-2521.485 
							-501.802,-2543.987 -501.802,-2603.404 						"/>
					</g>
					<path fill="none" stroke="#231F20" stroke-width="2" stroke-miterlimit="10" d="M-579.741-2461.485"/>
					<path fill="none" stroke="#231F20" stroke-width="2" stroke-miterlimit="10" d="M-579.741-2574.653"/>
					<path fill="none" stroke="#231F20" stroke-width="2" stroke-miterlimit="10" d="M-449.842-2461.483"/>
					<path fill="none" stroke="#231F20" stroke-width="2" stroke-miterlimit="10" d="M-449.842-2574.653"/>
					<path fill="none" stroke="#231F20" stroke-width="2" stroke-miterlimit="10" d="M-524.253-2607.895"/>
					<path fill="none" stroke="#231F20" stroke-width="2" stroke-miterlimit="10" d="M-504.97-2607.895"/>
				</g>
				<circle fill="none" stroke="#231F20" stroke-width="2" stroke-miterlimit="10" cx="-514.792" cy="-2491.486" r="5.001"/>
				
					<line fill="none" stroke="#231F20" stroke-width="2" stroke-linecap="round" stroke-miterlimit="10" x1="-514.791" y1="-2496.486" x2="-514.791" y2="-2603.987"/>
			</g>
		</g>
		<g>
			<rect x="-657.016" y="-2415.652" fill="none" width="219.5" height="52.5"/>
			<path d="M-616.987-2371.553h-3.72v-18.719h-24.239v18.719h-3.72v-41.398h3.72v19.5h24.239v-19.5h3.72V-2371.553z"/>
			<path d="M-589.567-2377.313l-1.62,3.36c-2.22,2.22-5.34,3.24-8.82,3.24c-5.88,0-10.08-3.06-10.08-8.819
				c0-7.26,6.9-10.8,18.359-10.8h2.04v-1.14c0-1.439,0-2.64-0.12-3.899c-0.3-3.66-2.52-5.76-7.08-5.76c-4.38,0-7.5,2.34-7.98,7.26
				h-3.9c0.42-6.24,5.16-10.26,11.88-10.26c7.02,0,10.319,3.18,10.799,8.399c0.12,1.38,0.12,2.7,0.12,4.2v11.1
				c0,2.82,0.18,5.1,0.6,8.879h-3.72L-589.567-2377.313z M-589.687-2387.453c-8.939-0.66-16.319,1.5-16.319,7.62
				c0,4.02,2.52,6.18,7.14,6.18c5.52,0,9.179-4.2,9.179-10.14V-2387.453z"/>
			<path d="M-552.067-2381.453c-1.44,7.02-6.66,10.739-13.5,10.739c-7.92,0-14.1-5.459-14.1-16.679
				c0-10.5,6.78-16.739,14.759-16.739c7.32,0,12.18,4.5,13.14,11.22h-3.9c-1.08-5.34-4.26-8.28-9.359-8.28
				c-5.34,0-10.56,4.32-10.56,13.5c0,9.779,4.919,14.039,10.259,14.039c4.68,0,8.28-2.7,9.42-7.799H-552.067z"/>
			<path d="M-541.867-2382.713v11.16h-3.72v-44.098h3.72v28.799l16.26-16.439h4.859l-15.539,15.18l15.659,16.559h-5.16
				l-13.199-14.219L-541.867-2382.713z"/>
			<path d="M-478.989-2392.672v21.119h-6.72l-0.48-6.66l-1.859,4.32c-2.34,2.28-5.64,3.18-10.2,3.18
				c-11.52,0-18.779-8.16-18.779-21.299c0-13.56,8.88-21.779,20.34-21.779c10.979,0,16.979,5.94,18.059,13.859h-8.459
				c-1.021-4.74-4.2-7.68-9.72-7.68c-6.66,0-11.46,5.7-11.46,15.12c0,10.319,4.8,15.599,11.279,15.599c5.46,0,9.24-3.48,10.02-9.299
				h-8.819l-0.06-6.48H-478.989z"/>
			<path d="M-453.608-2406.472v34.918h-8.28v-34.918h-14.039v-6.48h36.358v6.48H-453.608z"/>
		</g>
	</g>
	<g id="Base_copy_6" display="inline">
		<g>
			<g>
				<g>
					<g>
						<polygon fill="#FCD036" points="-654.956,-2162.179 -654.956,-2192.179 -628.976,-2207.179 -602.995,-2192.179 
							-602.995,-2162.179 -628.975,-2147.179 						"/>
						<polyline fill="none" stroke="#231F20" stroke-width="10" stroke-miterlimit="10" points="-538.041,-2109.678 -590,-2139.681 
							-628.976,-2117.178 -680.937,-2147.178 -680.937,-2207.179 -628.976,-2237.177 -577.015,-2207.177 -577.014,-2162.179 
							-525.051,-2132.178 						"/>
					</g>
					<path fill="none" stroke="#231F20" stroke-width="2" stroke-miterlimit="10" d="M-622.48-2248.429"/>
					<path fill="none" stroke="#231F20" stroke-width="2" stroke-miterlimit="10" d="M-524.475-2191.843"/>
					<path fill="none" stroke="#231F20" stroke-width="2" stroke-miterlimit="10" d="M-687.431-2135.934"/>
					<path fill="none" stroke="#231F20" stroke-width="2" stroke-miterlimit="10" d="M-589.424-2079.348"/>
					<path fill="none" stroke="#231F20" stroke-width="2" stroke-miterlimit="10" d="M-523.43-2127.169"/>
					<path fill="none" stroke="#231F20" stroke-width="2" stroke-miterlimit="10" d="M-533.07-2110.471"/>
				</g>
			</g>
		</g>
		<g>
			<rect x="-589.424" y="-2216.91" fill="none" width="551.767" height="79.462"/>
			<path d="M-439.034-2137.531h-6.696v-33.696h-43.633v33.696h-6.696v-74.521h6.696v35.102h43.633v-35.102h6.696V-2137.531z"/>
			<path d="M-389.679-2147.899l-2.916,6.048c-3.996,3.996-9.612,5.832-15.876,5.832c-10.584,0-18.144-5.508-18.144-15.876
				c0-13.068,12.42-19.44,33.047-19.44h3.674v-2.052c0-2.593,0-4.752-0.217-7.021c-0.541-6.588-4.537-10.367-12.745-10.367
				c-7.884,0-13.5,4.211-14.364,13.067h-7.02c0.756-11.231,9.288-18.468,21.384-18.468c12.637,0,18.577,5.724,19.44,15.119
				c0.217,2.484,0.217,4.861,0.217,7.561v19.98c0,5.076,0.324,9.181,1.08,15.984h-6.695L-389.679-2147.899z M-389.894-2166.151
				c-16.093-1.188-29.377,2.7-29.377,13.716c0,7.236,4.536,11.124,12.853,11.124c9.935,0,16.525-7.56,16.525-18.252V-2166.151z"/>
			<path d="M-322.179-2155.352c-2.592,12.637-11.988,19.332-24.301,19.332c-14.256,0-25.379-9.828-25.379-30.024
				c0-18.899,12.203-30.132,26.568-30.132c13.176,0,21.924,8.1,23.652,20.195h-7.021c-1.943-9.611-7.668-14.904-16.848-14.904
				c-9.611,0-19.008,7.777-19.008,24.301c0,17.604,8.855,25.272,18.469,25.272c8.424,0,14.904-4.86,16.955-14.04H-322.179z"/>
			<path d="M-303.819-2157.619v20.088h-6.697v-79.381h6.697v51.841l29.268-29.593h8.748l-27.973,27.324l28.189,29.809h-9.289
				l-23.76-25.597L-303.819-2157.619z"/>
			<path d="M-190.636-2175.548v38.017h-12.098l-0.863-11.988l-3.348,7.776c-4.213,4.104-10.152,5.724-18.361,5.724
				c-20.736,0-33.805-14.688-33.805-38.34c0-24.408,15.984-39.205,36.613-39.205c19.764,0,30.564,10.692,32.508,24.948h-15.227
				c-1.838-8.532-7.561-13.824-17.498-13.824c-11.988,0-20.627,10.261-20.627,27.217c0,18.576,8.639,28.08,20.305,28.08
				c9.828,0,16.631-6.264,18.035-16.74h-15.877l-0.107-11.664H-190.636z"/>
			<path d="M-144.952-2200.389v62.857h-14.904v-62.857h-25.271v-11.664h65.447v11.664H-144.952z"/>
		</g>
		<circle fill="none" stroke="#231F20" stroke-width="2" stroke-miterlimit="10" cx="-628.975" cy="-2177.178" r="5"/>
		<polyline fill="none" stroke="#231F20" stroke-width="2" stroke-miterlimit="10" points="-624.645,-2174.678 -527.759,-2118.741 
			-147.853,-2118.741 		"/>
	</g>
</g>
<g id="Final_Base" display="none">
	<g display="inline">
		<rect x="-956.401" y="-2321.828" fill="none" width="219.5" height="52.5"/>
		<path d="M-916.372-2277.729h-3.72v-18.719h-24.239v18.719h-3.72v-41.398h3.72v19.5h24.239v-19.5h3.72V-2277.729z"/>
		<path d="M-888.952-2283.488l-1.62,3.36c-2.22,2.22-5.34,3.239-8.82,3.239c-5.88,0-10.08-3.059-10.08-8.818
			c0-7.26,6.9-10.801,18.359-10.801h2.04v-1.14c0-1.439,0-2.64-0.12-3.899c-0.3-3.66-2.52-5.76-7.08-5.76
			c-4.38,0-7.5,2.34-7.98,7.26h-3.9c0.42-6.24,5.16-10.26,11.88-10.26c7.02,0,10.319,3.18,10.799,8.399c0.12,1.38,0.12,2.7,0.12,4.2
			v11.1c0,2.82,0.18,5.1,0.6,8.879h-3.72L-888.952-2283.488z M-889.072-2293.627c-8.939-0.66-16.319,1.5-16.319,7.619
			c0,4.02,2.52,6.18,7.14,6.18c5.52,0,9.179-4.199,9.179-10.14V-2293.627z"/>
		<path d="M-851.452-2287.627c-1.44,7.02-6.66,10.738-13.5,10.738c-7.92,0-14.1-5.459-14.1-16.679
			c0-10.499,6.78-16.739,14.759-16.739c7.32,0,12.18,4.5,13.14,11.22h-3.9c-1.08-5.34-4.26-8.28-9.359-8.28
			c-5.34,0-10.56,4.32-10.56,13.5c0,9.779,4.919,14.039,10.259,14.039c4.68,0,8.28-2.699,9.42-7.799H-851.452z"/>
		<path d="M-841.252-2288.888v11.159h-3.72v-44.098h3.72v28.799l16.26-16.439h4.859l-15.539,15.18l15.659,16.559h-5.16
			l-13.199-14.219L-841.252-2288.888z"/>
		<path d="M-778.374-2298.848v21.119h-6.72l-0.48-6.659l-1.859,4.319c-2.34,2.28-5.64,3.18-10.2,3.18
			c-11.52,0-18.779-8.159-18.779-21.299c0-13.559,8.88-21.779,20.34-21.779c10.979,0,16.979,5.94,18.059,13.859h-8.459
			c-1.021-4.739-4.2-7.68-9.72-7.68c-6.66,0-11.46,5.7-11.46,15.12c0,10.319,4.8,15.599,11.279,15.599
			c5.46,0,9.24-3.479,10.02-9.299h-8.819l-0.06-6.48H-778.374z"/>
		<path d="M-752.993-2312.646v34.918h-8.28v-34.918h-14.039v-6.48h36.358v6.48H-752.993z"/>
	</g>
	<g display="inline">
		<polygon fill="#FCD036" points="-911.604,-2502.32 -885.624,-2517.32 -859.643,-2502.32 -859.643,-2472.32 -885.624,-2457.32 
			-911.604,-2472.32 		"/>
		<polygon fill="#FCD036" points="-846.651,-2417.654 -820.67,-2432.654 -794.69,-2417.654 -794.69,-2387.654 -820.67,-2372.654 
			-846.651,-2387.654 		"/>
	</g>
	<g display="inline">
		<circle fill="none" stroke="#231F20" stroke-width="2" stroke-miterlimit="10" cx="-885.624" cy="-2487.32" r="5"/>
		
			<line fill="none" stroke="#231F20" stroke-width="2" stroke-linecap="round" stroke-miterlimit="10" x1="-885.624" y1="-2482.32" x2="-885.624" y2="-2372.654"/>
		<circle fill="none" stroke="#231F20" stroke-width="2" stroke-miterlimit="10" cx="-820.67" cy="-2402.654" r="5"/>
		
			<line fill="none" stroke="#231F20" stroke-width="2" stroke-linecap="round" stroke-miterlimit="10" x1="-820.67" y1="-2517.32" x2="-820.67" y2="-2407.654"/>
	</g>
	<g display="inline">
		
			<polyline fill="none" stroke="#231F20" stroke-width="6" stroke-linecap="round" stroke-linejoin="round" stroke-miterlimit="10" points="
			-937.585,-2457.32 -937.585,-2517.32 -885.624,-2547.32 -833.662,-2517.32 -833.662,-2457.32 		"/>
		
			<line fill="none" stroke="#231F20" stroke-width="6" stroke-linecap="round" stroke-linejoin="round" stroke-miterlimit="10" x1="-937.585" y1="-2457.32" x2="-898.614" y2="-2434.82"/>
		
			<line fill="none" stroke="#231F20" stroke-width="6" stroke-linecap="round" stroke-linejoin="round" stroke-miterlimit="10" x1="-833.662" y1="-2457.32" x2="-872.632" y2="-2434.82"/>
		
			<polyline fill="none" stroke="#231F20" stroke-width="6" stroke-linecap="round" stroke-linejoin="round" stroke-miterlimit="10" points="
			-768.708,-2434.82 -768.708,-2374.82 -820.67,-2344.82 -872.632,-2374.82 -872.632,-2434.82 		"/>
		
			<line fill="none" stroke="#231F20" stroke-width="6" stroke-linecap="round" stroke-linejoin="round" stroke-miterlimit="10" x1="-807.68" y1="-2457.32" x2="-768.708" y2="-2434.82"/>
	</g>
</g>
<g id="Light" display="none">
	<g id="Light_BG">
		<rect x="-745.672" y="-2666.076" display="inline" fill="#FFFDE0" width="2000" height="1879.615"/>
	</g>
	<g id="Logos_1_" display="inline">
		<g id="Side_Stacked">
			<g>
				<g>
					<polygon fill="#FCD036" points="-601.236,-2514.737 -549.917,-2544.366 -498.596,-2514.737 -498.596,-2455.478 
						-549.917,-2425.849 -601.236,-2455.478 					"/>
					<polygon fill="#FCD036" points="-472.934,-2347.495 -421.614,-2377.126 -370.295,-2347.495 -370.295,-2288.237 
						-421.614,-2258.606 -472.934,-2288.237 					"/>
				</g>
				<g>
					<circle fill="none" stroke="#231F20" stroke-width="4" stroke-miterlimit="10" cx="-549.917" cy="-2485.108" r="9.876"/>
					
						<line fill="none" stroke="#231F20" stroke-width="4" stroke-linecap="round" stroke-miterlimit="10" x1="-549.917" y1="-2475.231" x2="-549.917" y2="-2258.606"/>
					<circle fill="none" stroke="#231F20" stroke-width="4" stroke-miterlimit="10" cx="-421.614" cy="-2317.866" r="9.876"/>
					
						<line fill="none" stroke="#231F20" stroke-width="4" stroke-linecap="round" stroke-miterlimit="10" x1="-421.614" y1="-2544.366" x2="-421.614" y2="-2327.743"/>
				</g>
				<g>
					
						<polyline fill="none" stroke="#231F20" stroke-width="12" stroke-linecap="round" stroke-linejoin="round" stroke-miterlimit="10" points="
						-652.558,-2423.709 -652.558,-2542.227 -549.917,-2601.486 -447.275,-2542.227 -447.275,-2423.709 					"/>
					
						<line fill="none" stroke="#231F20" stroke-width="12" stroke-linecap="round" stroke-linejoin="round" stroke-miterlimit="10" x1="-652.558" y1="-2423.709" x2="-575.576" y2="-2379.264"/>
					
						<line fill="none" stroke="#231F20" stroke-width="12" stroke-linecap="round" stroke-linejoin="round" stroke-miterlimit="10" x1="-447.275" y1="-2423.709" x2="-524.255" y2="-2379.264"/>
					
						<polyline fill="none" stroke="#231F20" stroke-width="12" stroke-linecap="round" stroke-linejoin="round" stroke-miterlimit="10" points="
						-318.974,-2379.264 -318.974,-2260.746 -421.614,-2201.486 -524.255,-2260.746 -524.255,-2379.264 					"/>
					
						<line fill="none" stroke="#231F20" stroke-width="12" stroke-linecap="round" stroke-linejoin="round" stroke-miterlimit="10" x1="-395.955" y1="-2423.709" x2="-318.974" y2="-2379.264"/>
				</g>
				<g>
					<g>
						<path d="M-223.127-2416.387h-12.418v-62.484h-80.908v62.484h-12.415v-138.186h12.415v65.088h80.908v-65.088h12.418V-2416.387z
							"/>
						<path d="M-131.61-2435.613l-5.405,11.217c-7.411,7.408-17.826,10.814-29.438,10.814c-19.629,0-33.648-10.213-33.648-29.439
							c0-24.232,23.031-36.049,61.283-36.049h6.81v-3.807c0-4.805,0-8.811-0.401-13.016c-1.001-12.215-8.411-19.227-23.633-19.227
							c-14.619,0-25.031,7.811-26.636,24.232h-13.017c1.4-20.828,17.224-34.244,39.652-34.244c23.433,0,34.446,10.613,36.05,28.037
							c0.399,4.605,0.399,9.01,0.399,14.018v37.049c0,9.414,0.601,17.025,2.003,29.641h-12.416L-131.61-2435.613z
							 M-132.009-2469.459c-29.841-2.201-54.475,5.01-54.475,25.436c0,13.418,8.414,20.625,23.834,20.625
							c18.424,0,30.641-14.018,30.641-33.844V-2469.459z"/>
						<path d="M-6.443-2449.43c-4.809,23.432-22.231,35.848-45.061,35.848c-26.437,0-47.063-18.225-47.063-55.674
							c0-35.049,22.629-55.875,49.265-55.875c24.434,0,40.654,15.02,43.86,37.449H-18.46c-3.605-17.824-14.219-27.637-31.242-27.637
							c-17.825,0-35.246,14.418-35.246,45.059c0,32.645,16.421,46.861,34.243,46.861c15.622,0,27.638-9.01,31.442-26.031H-6.443z"/>
						<path d="M27.597-2453.639v37.252H15.181v-147.197h12.416v96.129l54.273-54.873h16.222l-51.871,50.668l52.271,55.273H81.269
							L37.21-2463.85L27.597-2453.639z"/>
					</g>
					<g>
						<path d="M-110.493-2317.313v74.998h-25.905l-2.507-22.77l-6.477,15.459c-8.147,7.52-18.802,10.236-34.47,10.236
							c-39.277,0-65.391-27.16-65.391-74.162c0-48.469,32.383-75.838,71.865-75.838c39.486,0,61.422,21.309,64.346,49.516h-33.008
							c-3.343-16.297-14.415-25.281-31.755-25.281c-20.892,0-36.978,17.756-36.978,49.721c0,36.143,16.297,51.811,36.77,51.811
							c16.922,0,28.62-9.816,32.381-28.201h-29.457v-25.488H-110.493z"/>
						<path d="M-20.034-2360.975v118.66h-32.591v-118.66h-48.05v-25.488h128.69v25.488H-20.034z"/>
					</g>
				</g>
			</g>
		</g>
		<g id="Centered">
			<g>
				<g>
					<polygon fill="#FCD036" points="607.009,-2479.327 658.328,-2508.956 709.649,-2479.327 709.649,-2420.067 658.328,-2390.438 
						607.009,-2420.067 					"/>
					<polygon fill="#FCD036" points="735.312,-2312.084 786.631,-2341.715 837.95,-2312.084 837.95,-2252.826 786.631,-2223.195 
						735.312,-2252.826 					"/>
				</g>
				<g>
					<circle fill="none" stroke="#231F20" stroke-width="4" stroke-miterlimit="10" cx="658.329" cy="-2449.698" r="9.876"/>
					
						<line fill="none" stroke="#231F20" stroke-width="4" stroke-linecap="round" stroke-miterlimit="10" x1="658.328" y1="-2439.821" x2="658.328" y2="-2223.195"/>
					<circle fill="none" stroke="#231F20" stroke-width="4" stroke-miterlimit="10" cx="786.631" cy="-2282.455" r="9.876"/>
					
						<line fill="none" stroke="#231F20" stroke-width="4" stroke-linecap="round" stroke-miterlimit="10" x1="786.631" y1="-2508.956" x2="786.631" y2="-2292.332"/>
				</g>
				<g>
					
						<polyline fill="none" stroke="#231F20" stroke-width="12" stroke-linecap="round" stroke-linejoin="round" stroke-miterlimit="10" points="
						555.688,-2388.299 555.688,-2506.817 658.328,-2566.076 760.97,-2506.817 760.97,-2388.299 					"/>
					
						<line fill="none" stroke="#231F20" stroke-width="12" stroke-linecap="round" stroke-linejoin="round" stroke-miterlimit="10" x1="555.688" y1="-2388.299" x2="632.669" y2="-2343.854"/>
					
						<line fill="none" stroke="#231F20" stroke-width="12" stroke-linecap="round" stroke-linejoin="round" stroke-miterlimit="10" x1="760.97" y1="-2388.299" x2="683.99" y2="-2343.854"/>
					
						<polyline fill="none" stroke="#231F20" stroke-width="12" stroke-linecap="round" stroke-linejoin="round" stroke-miterlimit="10" points="
						889.271,-2343.854 889.271,-2225.336 786.631,-2166.076 683.99,-2225.336 683.99,-2343.854 					"/>
					
						<line fill="none" stroke="#231F20" stroke-width="12" stroke-linecap="round" stroke-linejoin="round" stroke-miterlimit="10" x1="812.29" y1="-2388.299" x2="889.271" y2="-2343.854"/>
				</g>
				<g>
					<path d="M477.458-1968.881h-12.416v-62.482h-80.908v62.482h-12.416v-138.184h12.416v65.086h80.908v-65.086h12.416V-1968.881z"
						/>
					<path d="M568.976-1988.106l-5.406,11.215c-7.411,7.409-17.825,10.815-29.44,10.815c-19.625,0-33.644-10.214-33.644-29.439
						c0-24.232,23.03-36.049,61.281-36.049h6.81v-3.805c0-4.806,0-8.812-0.401-13.018c-1.001-12.216-8.412-19.226-23.632-19.226
						c-14.619,0-25.033,7.811-26.635,24.232h-13.018c1.401-20.828,17.223-34.245,39.652-34.245
						c23.432,0,34.447,10.614,36.048,28.037c0.401,4.605,0.401,9.012,0.401,14.019v37.049c0,9.413,0.6,17.023,2.002,29.64h-12.416
						L568.976-1988.106z M568.576-2021.952c-29.84-2.202-54.474,5.007-54.474,25.436c0,13.417,8.412,20.626,23.833,20.626
						c18.424,0,30.641-14.019,30.641-33.845V-2021.952z"/>
					<path d="M694.14-2001.925c-4.806,23.431-22.229,35.849-45.059,35.849c-26.437,0-47.064-18.225-47.064-55.675
						c0-35.046,22.632-55.874,49.267-55.874c24.433,0,40.654,15.02,43.858,37.45h-13.018c-3.604-17.824-14.219-27.638-31.242-27.638
						c-17.823,0-35.246,14.419-35.246,45.06c0,32.645,16.422,46.862,34.245,46.862c15.621,0,27.637-9.011,31.441-26.034H694.14z"/>
					<path d="M728.182-2006.131v37.25h-12.416v-147.195h12.416v96.128l54.273-54.873h16.221l-51.869,50.667l52.271,55.273h-17.224
						l-44.06-47.463L728.182-2006.131z"/>
					<path d="M940.461-2040.776v71.896h-24.834l-2.402-21.829l-6.208,14.819c-7.811,7.211-18.024,9.814-33.044,9.814
						c-37.65,0-62.684-26.035-62.684-71.096c0-46.461,31.042-72.696,68.892-72.696c37.851,0,58.878,20.427,61.683,47.463h-31.643
						c-3.204-15.621-13.819-24.232-30.441-24.232c-20.026,0-35.446,17.023-35.446,47.664c0,34.646,15.621,49.666,35.247,49.666
						c16.222,0,27.437-9.413,31.041-27.036h-28.238v-24.433H940.461z"/>
					<path d="M1027.176-2082.632v113.751h-31.242v-113.751h-46.061v-24.433h123.364v24.433H1027.176z"/>
				</g>
			</g>
		</g>
		<g id="Side_Extended">
			<g>
				<g>
					<polygon fill="#FCD036" points="-614.704,-1680.052 -563.385,-1709.681 -512.063,-1680.052 -512.063,-1620.792 
						-563.385,-1591.163 -614.704,-1620.792 					"/>
					<polygon fill="#FCD036" points="-486.401,-1512.81 -435.082,-1542.44 -383.763,-1512.81 -383.763,-1453.552 
						-435.082,-1423.921 -486.401,-1453.552 					"/>
				</g>
				<g>
					<circle fill="none" stroke="#231F20" stroke-width="4" stroke-miterlimit="10" cx="-563.384" cy="-1650.423" r="9.876"/>
					
						<line fill="none" stroke="#231F20" stroke-width="4" stroke-linecap="round" stroke-miterlimit="10" x1="-563.385" y1="-1640.546" x2="-563.385" y2="-1423.921"/>
					<circle fill="none" stroke="#231F20" stroke-width="4" stroke-miterlimit="10" cx="-435.082" cy="-1483.181" r="9.876"/>
					
						<line fill="none" stroke="#231F20" stroke-width="4" stroke-linecap="round" stroke-miterlimit="10" x1="-435.082" y1="-1709.681" x2="-435.082" y2="-1493.058"/>
				</g>
				<g>
					
						<polyline fill="none" stroke="#231F20" stroke-width="12" stroke-linecap="round" stroke-linejoin="round" stroke-miterlimit="10" points="
						-666.025,-1589.023 -666.025,-1707.541 -563.385,-1766.801 -460.743,-1707.541 -460.743,-1589.023 					"/>
					
						<line fill="none" stroke="#231F20" stroke-width="12" stroke-linecap="round" stroke-linejoin="round" stroke-miterlimit="10" x1="-666.025" y1="-1589.023" x2="-589.044" y2="-1544.578"/>
					
						<line fill="none" stroke="#231F20" stroke-width="12" stroke-linecap="round" stroke-linejoin="round" stroke-miterlimit="10" x1="-460.743" y1="-1589.023" x2="-537.723" y2="-1544.578"/>
					
						<polyline fill="none" stroke="#231F20" stroke-width="12" stroke-linecap="round" stroke-linejoin="round" stroke-miterlimit="10" points="
						-332.441,-1544.578 -332.441,-1426.061 -435.082,-1366.801 -537.723,-1426.061 -537.723,-1544.578 					"/>
					
						<line fill="none" stroke="#231F20" stroke-width="12" stroke-linecap="round" stroke-linejoin="round" stroke-miterlimit="10" x1="-409.423" y1="-1589.023" x2="-332.441" y2="-1544.578"/>
				</g>
				<g>
					<path d="M-16.878-1422.41H-41.71v-124.965h-161.816v124.965h-24.832v-276.367h24.832v130.172H-41.71v-130.172h24.832V-1422.41z
						"/>
					<path d="M166.157-1460.861l-10.813,22.43c-14.822,14.818-35.65,21.631-58.881,21.631c-39.25,0-67.287-20.428-67.287-58.879
						c0-48.465,46.061-72.098,122.563-72.098h13.619v-7.609c0-9.611,0-17.623-0.803-26.035
						c-2.002-24.432-16.824-38.451-47.264-38.451c-29.238,0-50.066,15.621-53.27,48.465H37.987
						c2.803-41.656,34.445-68.49,79.305-68.49c46.863,0,68.895,21.229,72.096,56.074c0.803,9.211,0.803,18.023,0.803,28.037v74.098
						c0,18.826,1.199,34.047,4.004,59.279h-24.832L166.157-1460.861z M165.358-1528.553c-59.68-4.404-108.947,10.014-108.947,50.871
						c0,26.834,16.824,41.252,47.666,41.252c36.848,0,61.281-28.037,61.281-67.689V-1528.553z"/>
					<path d="M416.485-1488.498c-9.611,46.861-44.457,71.697-90.117,71.697c-52.873,0-94.129-36.449-94.129-111.35
						c0-70.092,45.264-111.748,98.533-111.748c48.865,0,81.309,30.039,87.717,74.9h-26.035
						c-7.209-35.648-28.438-55.275-62.484-55.275c-35.646,0-70.492,28.838-70.492,90.119c0,65.289,32.844,93.725,68.49,93.725
						c31.242,0,55.273-18.021,62.883-52.068H416.485z"/>
					<path d="M484.569-1496.91v74.5h-24.832v-294.391h24.832v192.256l108.547-109.746h32.441l-103.738,101.334L626.36-1422.41
						h-34.447l-88.119-94.926L484.569-1496.91z"/>
					<path d="M909.128-1566.201v143.791H859.46l-4.805-43.658l-12.416,29.639c-15.621,14.422-36.049,19.629-66.088,19.629
						c-75.301,0-125.367-52.07-125.367-142.191c0-92.922,62.084-145.393,137.783-145.393c75.701,0,117.756,40.854,123.365,94.926
						h-63.285c-6.408-31.242-27.639-48.465-60.883-48.465c-40.053,0-70.893,34.047-70.893,95.328
						c0,69.293,31.242,99.332,70.494,99.332c32.443,0,54.873-18.826,62.082-54.072h-56.477v-48.865H909.128z"/>
					<path d="M1082.558-1649.912v227.502h-62.484v-227.502h-92.121v-48.865h246.729v48.865H1082.558z"/>
				</g>
			</g>
		</g>
		<g id="Solos_1_">
			<g>
				<g>
					<polygon fill="#FCD036" points="-575.685,-1149.712 -524.365,-1179.341 -473.044,-1149.712 -473.044,-1090.452 
						-524.365,-1060.822 -575.685,-1090.452 					"/>
					<polygon fill="#FCD036" points="-447.382,-982.469 -396.063,-1012.1 -344.743,-982.469 -344.743,-923.211 -396.063,-893.58 
						-447.382,-923.211 					"/>
				</g>
				<g>
					<circle fill="none" stroke="#231F20" stroke-width="4" stroke-miterlimit="10" cx="-524.365" cy="-1120.083" r="9.876"/>
					
						<line fill="none" stroke="#231F20" stroke-width="4" stroke-linecap="round" stroke-miterlimit="10" x1="-524.365" y1="-1110.206" x2="-524.365" y2="-893.58"/>
					<circle fill="none" stroke="#231F20" stroke-width="4" stroke-miterlimit="10" cx="-396.063" cy="-952.84" r="9.876"/>
					
						<line fill="none" stroke="#231F20" stroke-width="4" stroke-linecap="round" stroke-miterlimit="10" x1="-396.063" y1="-1179.341" x2="-396.063" y2="-962.717"/>
				</g>
				<g>
					
						<polyline fill="none" stroke="#231F20" stroke-width="12" stroke-linecap="round" stroke-linejoin="round" stroke-miterlimit="10" points="
						-627.006,-1058.684 -627.006,-1177.201 -524.365,-1236.461 -421.724,-1177.201 -421.724,-1058.684 					"/>
					
						<line fill="none" stroke="#231F20" stroke-width="12" stroke-linecap="round" stroke-linejoin="round" stroke-miterlimit="10" x1="-627.006" y1="-1058.684" x2="-550.024" y2="-1014.238"/>
					
						<line fill="none" stroke="#231F20" stroke-width="12" stroke-linecap="round" stroke-linejoin="round" stroke-miterlimit="10" x1="-421.724" y1="-1058.684" x2="-498.703" y2="-1014.238"/>
					
						<polyline fill="none" stroke="#231F20" stroke-width="12" stroke-linecap="round" stroke-linejoin="round" stroke-miterlimit="10" points="
						-293.422,-1014.238 -293.422,-895.721 -396.063,-836.461 -498.703,-895.721 -498.703,-1014.238 					"/>
					
						<line fill="none" stroke="#231F20" stroke-width="12" stroke-linecap="round" stroke-linejoin="round" stroke-miterlimit="10" x1="-370.403" y1="-1058.684" x2="-293.422" y2="-1014.238"/>
				</g>
			</g>
			<g>
				<path d="M29.729-904.702H17.313v-62.482h-80.908v62.482h-12.416v-138.184h12.416v65.086h80.908v-65.086h12.416V-904.702z"/>
				<path d="M121.247-923.928l-5.406,11.215c-7.411,7.409-17.825,10.815-29.44,10.815c-19.625,0-33.644-10.214-33.644-29.439
					c0-24.232,23.03-36.049,61.281-36.049h6.81v-3.805c0-4.806,0-8.812-0.401-13.018c-1.001-12.216-8.412-19.226-23.632-19.226
					c-14.619,0-25.033,7.811-26.635,24.232H57.162c1.401-20.828,17.223-34.245,39.652-34.245c23.432,0,34.447,10.614,36.048,28.037
					c0.401,4.605,0.401,9.012,0.401,14.019v37.049c0,9.413,0.6,17.023,2.002,29.64H122.85L121.247-923.928z M120.848-957.773
					c-29.84-2.202-54.474,5.007-54.474,25.436c0,13.417,8.412,20.626,23.833,20.626c18.424,0,30.641-14.019,30.641-33.845V-957.773z
					"/>
				<path d="M246.411-937.746c-4.806,23.431-22.229,35.849-45.059,35.849c-26.437,0-47.064-18.225-47.064-55.675
					c0-35.046,22.632-55.874,49.267-55.874c24.433,0,40.654,15.02,43.858,37.45h-13.018c-3.604-17.824-14.219-27.638-31.242-27.638
					c-17.823,0-35.246,14.419-35.246,45.06c0,32.645,16.422,46.862,34.245,46.862c15.621,0,27.637-9.011,31.441-26.034H246.411z"/>
				<path d="M280.453-941.952v37.25h-12.416v-147.195h12.416v96.128l54.273-54.873h16.221l-51.869,50.667l52.271,55.273h-17.224
					l-44.06-47.463L280.453-941.952z"/>
				<path d="M492.732-976.598v71.896h-24.834l-2.402-21.829l-6.208,14.819c-7.811,7.211-18.024,9.814-33.044,9.814
					c-37.65,0-62.684-26.035-62.684-71.096c0-46.461,31.042-72.696,68.892-72.696c37.851,0,58.878,20.427,61.683,47.463h-31.643
					c-3.204-15.621-13.819-24.232-30.441-24.232c-20.026,0-35.446,17.023-35.446,47.664c0,34.646,15.621,49.666,35.247,49.666
					c16.222,0,27.437-9.413,31.041-27.036h-28.238v-24.433H492.732z"/>
				<path d="M579.447-1018.453v113.751h-31.242v-113.751h-46.061v-24.433h123.364v24.433H579.447z"/>
			</g>
		</g>
	</g>
</g>
<g id="Dark">
	<g id="Light_BG_copy">
		<rect x="-745.672" y="-2666.076" fill="#242424" width="2000" height="1879.615"/>
	</g>
	<g id="Logos">
		<g id="Side_Stacked_copy">
			<g>
				<g>
					<polygon fill="#AD9D66" points="-601.236,-2514.737 -549.917,-2544.366 -498.596,-2514.737 -498.596,-2455.478 
						-549.917,-2425.849 -601.236,-2455.478 					"/>
					<polygon fill="#AD9D66" points="-472.934,-2347.495 -421.614,-2377.126 -370.295,-2347.495 -370.295,-2288.237 
						-421.614,-2258.606 -472.934,-2288.237 					"/>
				</g>
				<g>
					<circle fill="none" stroke="#FCD036" stroke-width="4" stroke-miterlimit="10" cx="-549.917" cy="-2485.108" r="9.876"/>
					
						<line fill="none" stroke="#FCD036" stroke-width="4" stroke-linecap="round" stroke-miterlimit="10" x1="-549.917" y1="-2475.231" x2="-549.917" y2="-2258.606"/>
					<circle fill="none" stroke="#FCD036" stroke-width="4" stroke-miterlimit="10" cx="-421.614" cy="-2317.866" r="9.876"/>
					
						<line fill="none" stroke="#FCD036" stroke-width="4" stroke-linecap="round" stroke-miterlimit="10" x1="-421.614" y1="-2544.366" x2="-421.614" y2="-2327.743"/>
				</g>
				<g>
					
						<polyline fill="none" stroke="#FCD036" stroke-width="12" stroke-linecap="round" stroke-linejoin="round" stroke-miterlimit="10" points="
						-652.558,-2423.709 -652.558,-2542.227 -549.917,-2601.486 -447.275,-2542.227 -447.275,-2423.709 					"/>
					
						<line fill="none" stroke="#FCD036" stroke-width="12" stroke-linecap="round" stroke-linejoin="round" stroke-miterlimit="10" x1="-652.558" y1="-2423.709" x2="-575.576" y2="-2379.264"/>
					
						<line fill="none" stroke="#FCD036" stroke-width="12" stroke-linecap="round" stroke-linejoin="round" stroke-miterlimit="10" x1="-447.275" y1="-2423.709" x2="-524.255" y2="-2379.264"/>
					
						<polyline fill="none" stroke="#FCD036" stroke-width="12" stroke-linecap="round" stroke-linejoin="round" stroke-miterlimit="10" points="
						-318.974,-2379.264 -318.974,-2260.746 -421.614,-2201.486 -524.255,-2260.746 -524.255,-2379.264 					"/>
					
						<line fill="none" stroke="#FCD036" stroke-width="12" stroke-linecap="round" stroke-linejoin="round" stroke-miterlimit="10" x1="-395.955" y1="-2423.709" x2="-318.974" y2="-2379.264"/>
				</g>
				<g>
					<g>
						<path fill="#FAB22C" d="M-223.127-2416.387h-12.418v-62.484h-80.908v62.484h-12.415v-138.186h12.415v65.088h80.908v-65.088
							h12.418V-2416.387z"/>
						<path fill="#FAB22C" d="M-131.61-2435.613l-5.405,11.217c-7.411,7.408-17.826,10.814-29.438,10.814
							c-19.629,0-33.648-10.213-33.648-29.439c0-24.232,23.031-36.049,61.283-36.049h6.81v-3.807c0-4.805,0-8.811-0.401-13.016
							c-1.001-12.215-8.411-19.227-23.633-19.227c-14.619,0-25.031,7.811-26.636,24.232h-13.017
							c1.4-20.828,17.224-34.244,39.652-34.244c23.433,0,34.446,10.613,36.05,28.037c0.399,4.605,0.399,9.01,0.399,14.018v37.049
							c0,9.414,0.601,17.025,2.003,29.641h-12.416L-131.61-2435.613z M-132.009-2469.459c-29.841-2.201-54.475,5.01-54.475,25.436
							c0,13.418,8.414,20.625,23.834,20.625c18.424,0,30.641-14.018,30.641-33.844V-2469.459z"/>
						<path fill="#FAB22C" d="M-6.443-2449.43c-4.809,23.432-22.231,35.848-45.061,35.848c-26.437,0-47.063-18.225-47.063-55.674
							c0-35.049,22.629-55.875,49.265-55.875c24.434,0,40.654,15.02,43.86,37.449H-18.46c-3.605-17.824-14.219-27.637-31.242-27.637
							c-17.825,0-35.246,14.418-35.246,45.059c0,32.645,16.421,46.861,34.243,46.861c15.622,0,27.638-9.01,31.442-26.031H-6.443z"/>
						<path fill="#FAB22C" d="M27.597-2453.639v37.252H15.181v-147.197h12.416v96.129l54.273-54.873h16.222l-51.871,50.668
							l52.271,55.273H81.269L37.21-2463.85L27.597-2453.639z"/>
					</g>
					<g>
						<path fill="#FAB22C" d="M-110.493-2317.313v74.998h-25.905l-2.507-22.77l-6.477,15.459
							c-8.147,7.52-18.802,10.236-34.47,10.236c-39.277,0-65.391-27.16-65.391-74.162c0-48.469,32.383-75.838,71.865-75.838
							c39.486,0,61.422,21.309,64.346,49.516h-33.008c-3.343-16.297-14.415-25.281-31.755-25.281
							c-20.892,0-36.978,17.756-36.978,49.721c0,36.143,16.297,51.811,36.77,51.811c16.922,0,28.62-9.816,32.381-28.201h-29.457
							v-25.488H-110.493z"/>
						<path fill="#FAB22C" d="M-20.034-2360.975v118.66h-32.591v-118.66h-48.05v-25.488h128.69v25.488H-20.034z"/>
					</g>
				</g>
			</g>
		</g>
		<g id="Centered_copy">
			<g>
				<g>
					<polygon fill="#AD9D66" points="607.009,-2479.327 658.328,-2508.956 709.649,-2479.327 709.649,-2420.067 658.328,-2390.438 
						607.009,-2420.067 					"/>
					<polygon fill="#AD9D66" points="735.312,-2312.084 786.631,-2341.715 837.95,-2312.084 837.95,-2252.826 786.631,-2223.195 
						735.312,-2252.826 					"/>
				</g>
				<g>
					<circle fill="none" stroke="#FCD036" stroke-width="4" stroke-miterlimit="10" cx="658.329" cy="-2449.698" r="9.876"/>
					
						<line fill="none" stroke="#FCD036" stroke-width="4" stroke-linecap="round" stroke-miterlimit="10" x1="658.328" y1="-2439.821" x2="658.328" y2="-2223.195"/>
					<circle fill="none" stroke="#FCD036" stroke-width="4" stroke-miterlimit="10" cx="786.631" cy="-2282.455" r="9.876"/>
					
						<line fill="none" stroke="#FCD036" stroke-width="4" stroke-linecap="round" stroke-miterlimit="10" x1="786.631" y1="-2508.956" x2="786.631" y2="-2292.332"/>
				</g>
				<g>
					
						<polyline fill="none" stroke="#FCD036" stroke-width="12" stroke-linecap="round" stroke-linejoin="round" stroke-miterlimit="10" points="
						555.688,-2388.299 555.688,-2506.817 658.328,-2566.076 760.97,-2506.817 760.97,-2388.299 					"/>
					
						<line fill="none" stroke="#FCD036" stroke-width="12" stroke-linecap="round" stroke-linejoin="round" stroke-miterlimit="10" x1="555.688" y1="-2388.299" x2="632.669" y2="-2343.854"/>
					
						<line fill="none" stroke="#FCD036" stroke-width="12" stroke-linecap="round" stroke-linejoin="round" stroke-miterlimit="10" x1="760.97" y1="-2388.299" x2="683.99" y2="-2343.854"/>
					
						<polyline fill="none" stroke="#FCD036" stroke-width="12" stroke-linecap="round" stroke-linejoin="round" stroke-miterlimit="10" points="
						889.271,-2343.854 889.271,-2225.336 786.631,-2166.076 683.99,-2225.336 683.99,-2343.854 					"/>
					
						<line fill="none" stroke="#FCD036" stroke-width="12" stroke-linecap="round" stroke-linejoin="round" stroke-miterlimit="10" x1="812.29" y1="-2388.299" x2="889.271" y2="-2343.854"/>
				</g>
				<g>
					<path fill="#FAB22C" d="M477.458-1968.881h-12.416v-62.482h-80.908v62.482h-12.416v-138.184h12.416v65.086h80.908v-65.086
						h12.416V-1968.881z"/>
					<path fill="#FAB22C" d="M568.976-1988.106l-5.406,11.215c-7.411,7.409-17.825,10.815-29.44,10.815
						c-19.625,0-33.644-10.214-33.644-29.439c0-24.232,23.03-36.049,61.281-36.049h6.81v-3.805c0-4.806,0-8.812-0.401-13.018
						c-1.001-12.216-8.412-19.226-23.632-19.226c-14.619,0-25.033,7.811-26.635,24.232h-13.018
						c1.401-20.828,17.223-34.245,39.652-34.245c23.432,0,34.447,10.614,36.048,28.037c0.401,4.605,0.401,9.012,0.401,14.019v37.049
						c0,9.413,0.6,17.023,2.002,29.64h-12.416L568.976-1988.106z M568.576-2021.952c-29.84-2.202-54.474,5.007-54.474,25.436
						c0,13.417,8.412,20.626,23.833,20.626c18.424,0,30.641-14.019,30.641-33.845V-2021.952z"/>
					<path fill="#FAB22C" d="M694.14-2001.925c-4.806,23.431-22.229,35.849-45.059,35.849c-26.437,0-47.064-18.225-47.064-55.675
						c0-35.046,22.632-55.874,49.267-55.874c24.433,0,40.654,15.02,43.858,37.45h-13.018c-3.604-17.824-14.219-27.638-31.242-27.638
						c-17.823,0-35.246,14.419-35.246,45.06c0,32.645,16.422,46.862,34.245,46.862c15.621,0,27.637-9.011,31.441-26.034H694.14z"/>
					<path fill="#FAB22C" d="M728.182-2006.131v37.25h-12.416v-147.195h12.416v96.128l54.273-54.873h16.221l-51.869,50.667
						l52.271,55.273h-17.224l-44.06-47.463L728.182-2006.131z"/>
					<path fill="#FAB22C" d="M940.461-2040.776v71.896h-24.834l-2.402-21.829l-6.208,14.819c-7.811,7.211-18.024,9.814-33.044,9.814
						c-37.65,0-62.684-26.035-62.684-71.096c0-46.461,31.042-72.696,68.892-72.696c37.851,0,58.878,20.427,61.683,47.463h-31.643
						c-3.204-15.621-13.819-24.232-30.441-24.232c-20.026,0-35.446,17.023-35.446,47.664c0,34.646,15.621,49.666,35.247,49.666
						c16.222,0,27.437-9.413,31.041-27.036h-28.238v-24.433H940.461z"/>
					<path fill="#FAB22C" d="M1027.176-2082.632v113.751h-31.242v-113.751h-46.061v-24.433h123.364v24.433H1027.176z"/>
				</g>
			</g>
		</g>
		<g id="Side_Extended_copy">
			<g>
				<g>
					<polygon fill="#AD9D66" points="-614.704,-1680.052 -563.385,-1709.681 -512.063,-1680.052 -512.063,-1620.792 
						-563.385,-1591.163 -614.704,-1620.792 					"/>
					<polygon fill="#AD9D66" points="-486.401,-1512.81 -435.082,-1542.44 -383.763,-1512.81 -383.763,-1453.552 
						-435.082,-1423.921 -486.401,-1453.552 					"/>
				</g>
				<g>
					<circle fill="none" stroke="#FCD036" stroke-width="4" stroke-miterlimit="10" cx="-563.384" cy="-1650.423" r="9.876"/>
					
						<line fill="none" stroke="#FCD036" stroke-width="4" stroke-linecap="round" stroke-miterlimit="10" x1="-563.385" y1="-1640.546" x2="-563.385" y2="-1423.921"/>
					<circle fill="none" stroke="#FCD036" stroke-width="4" stroke-miterlimit="10" cx="-435.082" cy="-1483.181" r="9.876"/>
					
						<line fill="none" stroke="#FCD036" stroke-width="4" stroke-linecap="round" stroke-miterlimit="10" x1="-435.082" y1="-1709.681" x2="-435.082" y2="-1493.058"/>
				</g>
				<g>
					
						<polyline fill="none" stroke="#FCD036" stroke-width="12" stroke-linecap="round" stroke-linejoin="round" stroke-miterlimit="10" points="
						-666.025,-1589.023 -666.025,-1707.541 -563.385,-1766.801 -460.743,-1707.541 -460.743,-1589.023 					"/>
					
						<line fill="none" stroke="#FCD036" stroke-width="12" stroke-linecap="round" stroke-linejoin="round" stroke-miterlimit="10" x1="-666.025" y1="-1589.023" x2="-589.044" y2="-1544.578"/>
					
						<line fill="none" stroke="#FCD036" stroke-width="12" stroke-linecap="round" stroke-linejoin="round" stroke-miterlimit="10" x1="-460.743" y1="-1589.023" x2="-537.723" y2="-1544.578"/>
					
						<polyline fill="none" stroke="#FCD036" stroke-width="12" stroke-linecap="round" stroke-linejoin="round" stroke-miterlimit="10" points="
						-332.441,-1544.578 -332.441,-1426.061 -435.082,-1366.801 -537.723,-1426.061 -537.723,-1544.578 					"/>
					
						<line fill="none" stroke="#FCD036" stroke-width="12" stroke-linecap="round" stroke-linejoin="round" stroke-miterlimit="10" x1="-409.423" y1="-1589.023" x2="-332.441" y2="-1544.578"/>
				</g>
				<g>
					<path fill="#FAB22C" d="M-16.878-1422.41H-41.71v-124.965h-161.816v124.965h-24.832v-276.367h24.832v130.172H-41.71v-130.172
						h24.832V-1422.41z"/>
					<path fill="#FAB22C" d="M166.157-1460.861l-10.813,22.43c-14.822,14.818-35.65,21.631-58.881,21.631
						c-39.25,0-67.287-20.428-67.287-58.879c0-48.465,46.061-72.098,122.563-72.098h13.619v-7.609c0-9.611,0-17.623-0.803-26.035
						c-2.002-24.432-16.824-38.451-47.264-38.451c-29.238,0-50.066,15.621-53.27,48.465H37.987
						c2.803-41.656,34.445-68.49,79.305-68.49c46.863,0,68.895,21.229,72.096,56.074c0.803,9.211,0.803,18.023,0.803,28.037v74.098
						c0,18.826,1.199,34.047,4.004,59.279h-24.832L166.157-1460.861z M165.358-1528.553c-59.68-4.404-108.947,10.014-108.947,50.871
						c0,26.834,16.824,41.252,47.666,41.252c36.848,0,61.281-28.037,61.281-67.689V-1528.553z"/>
					<path fill="#FAB22C" d="M416.485-1488.498c-9.611,46.861-44.457,71.697-90.117,71.697c-52.873,0-94.129-36.449-94.129-111.35
						c0-70.092,45.264-111.748,98.533-111.748c48.865,0,81.309,30.039,87.717,74.9h-26.035
						c-7.209-35.648-28.438-55.275-62.484-55.275c-35.646,0-70.492,28.838-70.492,90.119c0,65.289,32.844,93.725,68.49,93.725
						c31.242,0,55.273-18.021,62.883-52.068H416.485z"/>
					<path fill="#FAB22C" d="M484.569-1496.91v74.5h-24.832v-294.391h24.832v192.256l108.547-109.746h32.441l-103.738,101.334
						L626.36-1422.41h-34.447l-88.119-94.926L484.569-1496.91z"/>
					<path fill="#FAB22C" d="M909.128-1566.201v143.791H859.46l-4.805-43.658l-12.416,29.639
						c-15.621,14.422-36.049,19.629-66.088,19.629c-75.301,0-125.367-52.07-125.367-142.191
						c0-92.922,62.084-145.393,137.783-145.393c75.701,0,117.756,40.854,123.365,94.926h-63.285
						c-6.408-31.242-27.639-48.465-60.883-48.465c-40.053,0-70.893,34.047-70.893,95.328c0,69.293,31.242,99.332,70.494,99.332
						c32.443,0,54.873-18.826,62.082-54.072h-56.477v-48.865H909.128z"/>
					<path fill="#FAB22C" d="M1082.558-1649.912v227.502h-62.484v-227.502h-92.121v-48.865h246.729v48.865H1082.558z"/>
				</g>
			</g>
		</g>
		<g id="Solos">
			<g>
				<g>
					<polygon fill="#AD9D66" points="-575.685,-1149.712 -524.365,-1179.341 -473.044,-1149.712 -473.044,-1090.452 
						-524.365,-1060.822 -575.685,-1090.452 					"/>
					<polygon fill="#AD9D66" points="-447.382,-982.469 -396.063,-1012.1 -344.743,-982.469 -344.743,-923.211 -396.063,-893.58 
						-447.382,-923.211 					"/>
				</g>
				<g>
					<circle fill="none" stroke="#FCD036" stroke-width="4" stroke-miterlimit="10" cx="-524.365" cy="-1120.083" r="9.876"/>
					
						<line fill="none" stroke="#FCD036" stroke-width="4" stroke-linecap="round" stroke-miterlimit="10" x1="-524.365" y1="-1110.206" x2="-524.365" y2="-893.58"/>
					<circle fill="none" stroke="#FCD036" stroke-width="4" stroke-miterlimit="10" cx="-396.063" cy="-952.84" r="9.876"/>
					
						<line fill="none" stroke="#FCD036" stroke-width="4" stroke-linecap="round" stroke-miterlimit="10" x1="-396.063" y1="-1179.341" x2="-396.063" y2="-962.717"/>
				</g>
				<g>
					
						<polyline fill="none" stroke="#FCD036" stroke-width="12" stroke-linecap="round" stroke-linejoin="round" stroke-miterlimit="10" points="
						-627.006,-1058.684 -627.006,-1177.201 -524.365,-1236.461 -421.724,-1177.201 -421.724,-1058.684 					"/>
					
						<line fill="none" stroke="#FCD036" stroke-width="12" stroke-linecap="round" stroke-linejoin="round" stroke-miterlimit="10" x1="-627.006" y1="-1058.684" x2="-550.024" y2="-1014.238"/>
					
						<line fill="none" stroke="#FCD036" stroke-width="12" stroke-linecap="round" stroke-linejoin="round" stroke-miterlimit="10" x1="-421.724" y1="-1058.684" x2="-498.703" y2="-1014.238"/>
					
						<polyline fill="none" stroke="#FCD036" stroke-width="12" stroke-linecap="round" stroke-linejoin="round" stroke-miterlimit="10" points="
						-293.422,-1014.238 -293.422,-895.721 -396.063,-836.461 -498.703,-895.721 -498.703,-1014.238 					"/>
					
						<line fill="none" stroke="#FCD036" stroke-width="12" stroke-linecap="round" stroke-linejoin="round" stroke-miterlimit="10" x1="-370.403" y1="-1058.684" x2="-293.422" y2="-1014.238"/>
				</g>
			</g>
			<g>
				<path fill="#FAB22C" d="M29.729-904.702H17.313v-62.482h-80.908v62.482h-12.416v-138.184h12.416v65.086h80.908v-65.086h12.416
					V-904.702z"/>
				<path fill="#FAB22C" d="M121.247-923.928l-5.406,11.215c-7.411,7.409-17.825,10.815-29.44,10.815
					c-19.625,0-33.644-10.214-33.644-29.439c0-24.232,23.03-36.049,61.281-36.049h6.81v-3.805c0-4.806,0-8.812-0.401-13.018
					c-1.001-12.216-8.412-19.226-23.632-19.226c-14.619,0-25.033,7.811-26.635,24.232H57.162
					c1.401-20.828,17.223-34.245,39.652-34.245c23.432,0,34.447,10.614,36.048,28.037c0.401,4.605,0.401,9.012,0.401,14.019v37.049
					c0,9.413,0.6,17.023,2.002,29.64H122.85L121.247-923.928z M120.848-957.773c-29.84-2.202-54.474,5.007-54.474,25.436
					c0,13.417,8.412,20.626,23.833,20.626c18.424,0,30.641-14.019,30.641-33.845V-957.773z"/>
				<path fill="#FAB22C" d="M246.411-937.746c-4.806,23.431-22.229,35.849-45.059,35.849c-26.437,0-47.064-18.225-47.064-55.675
					c0-35.046,22.632-55.874,49.267-55.874c24.433,0,40.654,15.02,43.858,37.45h-13.018c-3.604-17.824-14.219-27.638-31.242-27.638
					c-17.823,0-35.246,14.419-35.246,45.06c0,32.645,16.422,46.862,34.245,46.862c15.621,0,27.637-9.011,31.441-26.034H246.411z"/>
				<path fill="#FAB22C" d="M280.453-941.952v37.25h-12.416v-147.195h12.416v96.128l54.273-54.873h16.221l-51.869,50.667
					l52.271,55.273h-17.224l-44.06-47.463L280.453-941.952z"/>
				<path fill="#FAB22C" d="M492.732-976.598v71.896h-24.834l-2.402-21.829l-6.208,14.819c-7.811,7.211-18.024,9.814-33.044,9.814
					c-37.65,0-62.684-26.035-62.684-71.096c0-46.461,31.042-72.696,68.892-72.696c37.851,0,58.878,20.427,61.683,47.463h-31.643
					c-3.204-15.621-13.819-24.232-30.441-24.232c-20.026,0-35.446,17.023-35.446,47.664c0,34.646,15.621,49.666,35.247,49.666
					c16.222,0,27.437-9.413,31.041-27.036h-28.238v-24.433H492.732z"/>
				<path fill="#FAB22C" d="M579.447-1018.453v113.751h-31.242v-113.751h-46.061v-24.433h123.364v24.433H579.447z"/>
			</g>
		</g>
	</g>
</g>
<g id="Final_Dark">
	<g>
		<polygon fill="#AD9D66" points="-601.872,-520.549 -550.553,-550.178 -499.231,-520.549 -499.231,-461.289 -550.553,-431.66 
			-601.872,-461.289 		"/>
		<polygon fill="#AD9D66" points="-473.569,-353.307 -422.25,-382.938 -370.931,-353.307 -370.931,-294.049 -422.25,-264.418 
			-473.569,-294.049 		"/>
	</g>
	<g>
		<circle fill="none" stroke="#FCD036" stroke-width="4" stroke-miterlimit="10" cx="-550.552" cy="-490.92" r="9.876"/>
		
			<line fill="none" stroke="#FCD036" stroke-width="4" stroke-linecap="round" stroke-miterlimit="10" x1="-550.553" y1="-481.043" x2="-550.553" y2="-264.418"/>
		<circle fill="none" stroke="#FCD036" stroke-width="4" stroke-miterlimit="10" cx="-422.25" cy="-323.678" r="9.876"/>
		
			<line fill="none" stroke="#FCD036" stroke-width="4" stroke-linecap="round" stroke-miterlimit="10" x1="-422.25" y1="-550.178" x2="-422.25" y2="-333.555"/>
	</g>
	<g>
		
			<polyline fill="none" stroke="#FCD036" stroke-width="12" stroke-linecap="round" stroke-linejoin="round" stroke-miterlimit="10" points="
			-653.193,-429.521 -653.193,-548.038 -550.553,-607.298 -447.911,-548.038 -447.911,-429.521 		"/>
		
			<line fill="none" stroke="#FCD036" stroke-width="12" stroke-linecap="round" stroke-linejoin="round" stroke-miterlimit="10" x1="-653.193" y1="-429.521" x2="-576.212" y2="-385.075"/>
		
			<line fill="none" stroke="#FCD036" stroke-width="12" stroke-linecap="round" stroke-linejoin="round" stroke-miterlimit="10" x1="-447.911" y1="-429.521" x2="-524.891" y2="-385.075"/>
		
			<polyline fill="none" stroke="#FCD036" stroke-width="12" stroke-linecap="round" stroke-linejoin="round" stroke-miterlimit="10" points="
			-319.609,-385.075 -319.609,-266.558 -422.25,-207.298 -524.891,-266.558 -524.891,-385.075 		"/>
		
			<line fill="none" stroke="#FCD036" stroke-width="12" stroke-linecap="round" stroke-linejoin="round" stroke-miterlimit="10" x1="-396.591" y1="-429.521" x2="-319.609" y2="-385.075"/>
	</g>
	<g>
		<path fill="#FCD036" d="M-186.271-334.38v-66.251h-74.338v66.251h-9v-145.836h9v69.375h74.338v-69.375h9.001v145.836H-186.271z"/>
		<path fill="#FCD036" d="M-153.966-334.38h-6.33l36.565-80.817h7.064l36.735,80.817h-7.064l-11.981-27.128h-33.966l2.317-5.087
			h29.444l-19.385-43.968L-153.966-334.38z"/>
		<path fill="#FCD036" d="M-6.743-337.206c-7.348,2.261-14.884,3.392-22.606,3.392c-28.258,0-42.387-14.036-42.387-42.105
			c0-26.562,14.129-39.843,42.387-39.843c7.723,0,15.259,1.13,22.606,3.391v5.087c-7.348-2.261-14.506-3.392-21.477-3.392
			c-25.056,0-37.582,11.586-37.582,34.757c0,24.678,12.526,37.018,37.582,37.018c6.971,0,14.129-1.13,21.477-3.391V-337.206z"/>
		<path fill="#FCD036" d="M16.429-415.197v80.817h-5.936v-80.817H16.429z M71.87-415.197l-38.488,38.261l39.844,42.557h-8.873
			l-36.904-40.579v-3.504l36.283-36.734H71.87z"/>
		<path fill="#FCD036" d="M218.463-418.758c1.042,0,1.876,0.833,1.876,1.667v81.668c0,0.833-0.834,1.667-1.876,1.667H197.63
			c-1.041,0-2.084-0.624-2.084-1.459l-0.832-13.54c-10,11.458-22.709,16.457-38.959,16.457c-39.375,0-70.209-27.292-70.209-75.002
			c0-43.333,32.918-74.998,73.335-74.998c20.416,0,38.749,8.124,51.666,21.458c0.834,0.625,0.834,1.875,0,2.499l-16.667,16.669
			c-0.832,0.625-2.084,0.625-2.707,0c-8.334-8.334-19.793-13.544-32.292-13.544c-25.001,0-45.418,17.709-45.418,47.916
			c0,33.542,20.417,47.92,45.418,47.92c13.333,0,24.999-5.835,33.542-15.209v-18.961H168.88c-1.25,0-2.082-0.624-2.082-1.457
			v-22.084c0-0.834,0.832-1.667,2.082-1.667H218.463z"/>
		<path fill="#FCD036" d="M273.465-455.216h-46.249v-25c42.083,0,77.709,0,120.001,0v25h-46.251v120.836h-27.501V-455.216z"/>
	</g>
	<g>
		<polygon fill="#AD9D66" points="-614.306,178.513 -562.987,148.884 -511.666,178.513 -511.666,237.772 -562.987,267.401 
			-614.306,237.772 		"/>
		<polygon fill="#AD9D66" points="-486.003,345.755 -434.684,316.124 -383.364,345.755 -383.364,405.013 -434.684,434.644 
			-486.003,405.013 		"/>
	</g>
	<g>
		<circle fill="none" stroke="#FCD036" stroke-width="4" stroke-miterlimit="10" cx="-562.986" cy="208.142" r="9.876"/>
		
			<line fill="none" stroke="#FCD036" stroke-width="4" stroke-linecap="round" stroke-miterlimit="10" x1="-562.986" y1="218.019" x2="-562.986" y2="434.644"/>
		<circle fill="none" stroke="#FCD036" stroke-width="4" stroke-miterlimit="10" cx="-434.684" cy="375.384" r="9.876"/>
		
			<line fill="none" stroke="#FCD036" stroke-width="4" stroke-linecap="round" stroke-miterlimit="10" x1="-434.684" y1="148.884" x2="-434.684" y2="365.507"/>
	</g>
	<g>
		
			<polyline fill="none" stroke="#FCD036" stroke-width="12" stroke-linecap="round" stroke-linejoin="round" stroke-miterlimit="10" points="
			-665.627,269.541 -665.627,151.023 -562.986,91.764 -460.345,151.023 -460.345,269.541 		"/>
		
			<line fill="none" stroke="#FCD036" stroke-width="12" stroke-linecap="round" stroke-linejoin="round" stroke-miterlimit="10" x1="-665.627" y1="269.541" x2="-588.646" y2="313.986"/>
		
			<line fill="none" stroke="#FCD036" stroke-width="12" stroke-linecap="round" stroke-linejoin="round" stroke-miterlimit="10" x1="-460.345" y1="269.541" x2="-537.324" y2="313.986"/>
		
			<polyline fill="none" stroke="#FCD036" stroke-width="12" stroke-linecap="round" stroke-linejoin="round" stroke-miterlimit="10" points="
			-332.044,313.986 -332.044,432.504 -434.684,491.764 -537.324,432.504 -537.324,313.986 		"/>
		
			<line fill="none" stroke="#FCD036" stroke-width="12" stroke-linecap="round" stroke-linejoin="round" stroke-miterlimit="10" x1="-409.024" y1="269.541" x2="-332.044" y2="313.986"/>
	</g>
	<g>
		<path fill="#FCD036" d="M-723.911,689.682v-66.251h-74.338v66.251h-9V543.846h9v69.375h74.338v-69.375h9.002v145.836H-723.911z"/>
		<path fill="#FCD036" d="M-691.604,689.682h-6.33l36.564-80.817h7.064l36.736,80.817h-7.064l-11.982-27.128h-33.965l2.316-5.087
			h29.445l-19.385-43.968L-691.604,689.682z"/>
		<path fill="#FCD036" d="M-544.382,686.855c-7.348,2.261-14.885,3.392-22.607,3.392c-28.258,0-42.387-14.036-42.387-42.105
			c0-26.562,14.129-39.843,42.387-39.843c7.723,0,15.26,1.13,22.607,3.391v5.087c-7.348-2.261-14.506-3.392-21.477-3.392
			c-25.057,0-37.582,11.586-37.582,34.757c0,24.678,12.525,37.018,37.582,37.018c6.971,0,14.129-1.13,21.477-3.391V686.855z"/>
		<path fill="#FCD036" d="M-521.21,608.864v80.817h-5.936v-80.817H-521.21z M-465.769,608.864l-38.488,38.261l39.844,42.557h-8.873
			l-36.904-40.579v-3.504l36.283-36.734H-465.769z"/>
		<path fill="#FCD036" d="M-319.177,605.304c1.043,0,1.877,0.833,1.877,1.667v81.668c0,0.833-0.834,1.667-1.877,1.667h-20.832
			c-1.041,0-2.084-0.624-2.084-1.459l-0.832-13.54c-10,11.458-22.709,16.457-38.959,16.457c-39.375,0-70.209-27.292-70.209-75.002
			c0-43.333,32.918-74.998,73.334-74.998c20.416,0,38.75,8.124,51.666,21.458c0.834,0.625,0.834,1.875,0,2.499l-16.666,16.669
			c-0.832,0.625-2.084,0.625-2.707,0c-8.334-8.334-19.793-13.544-32.293-13.544c-25,0-45.418,17.709-45.418,47.916
			c0,33.542,20.418,47.92,45.418,47.92c13.334,0,25-5.835,33.543-15.209v-18.961h-23.543c-1.25,0-2.082-0.624-2.082-1.457v-22.084
			c0-0.834,0.832-1.667,2.082-1.667H-319.177z"/>
		<path fill="#FCD036" d="M-264.175,568.846h-46.248v-25c42.082,0,77.709,0,120,0v25h-46.25v120.836h-27.502V568.846z"/>
	</g>
	<g>
		<polygon fill="#AD9D66" points="134.529,136.749 185.848,107.12 237.17,136.749 237.17,196.009 185.848,225.638 134.529,196.009 
					"/>
		<polygon fill="#AD9D66" points="262.832,303.991 314.15,274.36 365.471,303.991 365.471,363.249 314.15,392.88 262.832,363.249 		
			"/>
	</g>
	<g>
		<circle fill="none" stroke="#FCD036" stroke-width="4" stroke-miterlimit="10" cx="185.849" cy="166.378" r="9.876"/>
		
			<line fill="none" stroke="#FCD036" stroke-width="4" stroke-linecap="round" stroke-miterlimit="10" x1="185.849" y1="176.255" x2="185.849" y2="392.88"/>
		<circle fill="none" stroke="#FCD036" stroke-width="4" stroke-miterlimit="10" cx="314.151" cy="333.62" r="9.876"/>
		
			<line fill="none" stroke="#FCD036" stroke-width="4" stroke-linecap="round" stroke-miterlimit="10" x1="314.151" y1="107.12" x2="314.151" y2="323.743"/>
	</g>
	<g>
		
			<polyline fill="none" stroke="#FCD036" stroke-width="12" stroke-linecap="round" stroke-linejoin="round" stroke-miterlimit="10" points="
			83.208,227.777 83.208,109.26 185.849,50 288.491,109.26 288.491,227.777 		"/>
		
			<line fill="none" stroke="#FCD036" stroke-width="12" stroke-linecap="round" stroke-linejoin="round" stroke-miterlimit="10" x1="83.208" y1="227.777" x2="160.19" y2="272.223"/>
		
			<line fill="none" stroke="#FCD036" stroke-width="12" stroke-linecap="round" stroke-linejoin="round" stroke-miterlimit="10" x1="288.491" y1="227.777" x2="211.511" y2="272.223"/>
		
			<polyline fill="none" stroke="#FCD036" stroke-width="12" stroke-linecap="round" stroke-linejoin="round" stroke-miterlimit="10" points="
			416.792,272.223 416.792,390.74 314.151,450 211.511,390.74 211.511,272.223 		"/>
		
			<line fill="none" stroke="#FCD036" stroke-width="12" stroke-linecap="round" stroke-linejoin="round" stroke-miterlimit="10" x1="339.812" y1="227.777" x2="416.792" y2="272.223"/>
	</g>
	<g>
		<path fill="#FCD036" d="M192.917,784.619v-66.251h-74.338v66.251h-9V638.783h9v69.375h74.338v-69.375h9.002v145.836H192.917z"/>
		<path fill="#FCD036" d="M225.224,784.619h-6.33l36.564-80.817h7.064l36.736,80.817h-7.064l-11.982-27.128h-33.965l2.316-5.087
			h29.445l-19.385-43.968L225.224,784.619z"/>
		<path fill="#FCD036" d="M372.446,781.793c-7.348,2.261-14.885,3.392-22.607,3.392c-28.258,0-42.387-14.036-42.387-42.105
			c0-26.562,14.129-39.843,42.387-39.843c7.723,0,15.26,1.13,22.607,3.391v5.087c-7.348-2.261-14.506-3.392-21.477-3.392
			c-25.057,0-37.582,11.586-37.582,34.757c0,24.678,12.525,37.018,37.582,37.018c6.971,0,14.129-1.13,21.477-3.391V781.793z"/>
		<path fill="#FCD036" d="M395.618,703.802v80.817h-5.936v-80.817H395.618z M451.06,703.802l-38.488,38.261l39.844,42.557h-8.873
			l-36.904-40.579v-3.504l36.283-36.734H451.06z"/>
		<path fill="#FCD036" d="M597.651,700.241c1.043,0,1.877,0.833,1.877,1.667v81.668c0,0.833-0.834,1.667-1.877,1.667h-20.832
			c-1.041,0-2.084-0.624-2.084-1.459l-0.832-13.54c-10,11.458-22.709,16.457-38.959,16.457c-39.375,0-70.209-27.292-70.209-75.002
			c0-43.333,32.918-74.998,73.334-74.998c20.416,0,38.75,8.124,51.666,21.458c0.834,0.625,0.834,1.875,0,2.499l-16.666,16.669
			c-0.832,0.625-2.084,0.625-2.707,0c-8.334-8.334-19.793-13.544-32.293-13.544c-25,0-45.418,17.709-45.418,47.916
			c0,33.542,20.418,47.92,45.418,47.92c13.334,0,25-5.835,33.543-15.209v-18.961h-23.543c-1.25,0-2.082-0.624-2.082-1.457v-22.084
			c0-0.834,0.832-1.667,2.082-1.667H597.651z"/>
		<path fill="#FCD036" d="M652.653,663.783h-46.248v-25c42.082,0,77.709,0,120,0v25h-46.25v120.836h-27.502V663.783z"/>
	</g>
</g>
<g id="Mitt_Romney" display="none">
	<g id="Light_BG_copy_2">
		<rect x="-745.672" y="-2666.076" display="inline" fill="#242424" width="2000" height="1879.615"/>
	</g>
	<g display="inline">
		<g>
			<polygon fill="none" stroke="#FFFFFF" stroke-width="3" stroke-miterlimit="10" points="607.009,-2479.327 658.328,-2508.956 
				709.649,-2479.327 709.649,-2420.067 658.328,-2390.438 607.009,-2420.067 			"/>
			<polygon fill="none" stroke="#FFFFFF" stroke-width="3" stroke-miterlimit="10" points="735.312,-2312.084 786.631,-2341.715 
				837.95,-2312.084 837.95,-2252.826 786.631,-2223.195 735.312,-2252.826 			"/>
		</g>
		<g>
			<circle fill="none" stroke="#FFFFFF" stroke-width="4" stroke-miterlimit="10" cx="658.329" cy="-2449.698" r="9.876"/>
			
				<line fill="none" stroke="#FFFFFF" stroke-width="4" stroke-linecap="round" stroke-miterlimit="10" x1="658.328" y1="-2439.821" x2="658.328" y2="-2223.195"/>
			<circle fill="none" stroke="#FFFFFF" stroke-width="4" stroke-miterlimit="10" cx="786.631" cy="-2282.455" r="9.876"/>
			
				<line fill="none" stroke="#FFFFFF" stroke-width="4" stroke-linecap="round" stroke-miterlimit="10" x1="786.631" y1="-2508.956" x2="786.631" y2="-2292.332"/>
		</g>
		<g>
			
				<polyline fill="none" stroke="#FFFFFF" stroke-width="12" stroke-linecap="round" stroke-linejoin="round" stroke-miterlimit="10" points="
				555.688,-2388.299 555.688,-2506.817 658.328,-2566.076 760.97,-2506.817 760.97,-2388.299 			"/>
			
				<line fill="none" stroke="#FFFFFF" stroke-width="12" stroke-linecap="round" stroke-linejoin="round" stroke-miterlimit="10" x1="555.688" y1="-2388.299" x2="632.669" y2="-2343.854"/>
			
				<line fill="none" stroke="#FFFFFF" stroke-width="12" stroke-linecap="round" stroke-linejoin="round" stroke-miterlimit="10" x1="760.97" y1="-2388.299" x2="683.99" y2="-2343.854"/>
			
				<polyline fill="none" stroke="#FFFFFF" stroke-width="12" stroke-linecap="round" stroke-linejoin="round" stroke-miterlimit="10" points="
				889.271,-2343.854 889.271,-2225.336 786.631,-2166.076 683.99,-2225.336 683.99,-2343.854 			"/>
			
				<line fill="none" stroke="#FFFFFF" stroke-width="12" stroke-linecap="round" stroke-linejoin="round" stroke-miterlimit="10" x1="812.29" y1="-2388.299" x2="889.271" y2="-2343.854"/>
		</g>
		<g>
			<path fill="#FFFFFF" d="M477.458-1968.881h-12.416v-62.482h-80.908v62.482h-12.416v-138.184h12.416v65.086h80.908v-65.086h12.416
				V-1968.881z"/>
			<path fill="#FFFFFF" d="M568.976-1988.106l-5.406,11.215c-7.411,7.409-17.825,10.815-29.44,10.815
				c-19.625,0-33.644-10.214-33.644-29.439c0-24.232,23.03-36.049,61.281-36.049h6.81v-3.805c0-4.806,0-8.812-0.401-13.018
				c-1.001-12.216-8.412-19.226-23.632-19.226c-14.619,0-25.033,7.811-26.635,24.232h-13.018
				c1.401-20.828,17.223-34.245,39.652-34.245c23.432,0,34.447,10.614,36.048,28.037c0.401,4.605,0.401,9.012,0.401,14.019v37.049
				c0,9.413,0.6,17.023,2.002,29.64h-12.416L568.976-1988.106z M568.576-2021.952c-29.84-2.202-54.474,5.007-54.474,25.436
				c0,13.417,8.412,20.626,23.833,20.626c18.424,0,30.641-14.019,30.641-33.845V-2021.952z"/>
			<path fill="#FFFFFF" d="M694.14-2001.925c-4.806,23.431-22.229,35.849-45.059,35.849c-26.437,0-47.064-18.225-47.064-55.675
				c0-35.046,22.632-55.874,49.267-55.874c24.433,0,40.654,15.02,43.858,37.45h-13.018c-3.604-17.824-14.219-27.638-31.242-27.638
				c-17.823,0-35.246,14.419-35.246,45.06c0,32.645,16.422,46.862,34.245,46.862c15.621,0,27.637-9.011,31.441-26.034H694.14z"/>
			<path fill="#FFFFFF" d="M728.182-2006.131v37.25h-12.416v-147.195h12.416v96.128l54.273-54.873h16.221l-51.869,50.667
				l52.271,55.273h-17.224l-44.06-47.463L728.182-2006.131z"/>
			<path fill="#FFFFFF" d="M940.461-2040.776v71.896h-24.834l-2.402-21.829l-6.208,14.819c-7.811,7.211-18.024,9.814-33.044,9.814
				c-37.65,0-62.684-26.035-62.684-71.096c0-46.461,31.042-72.696,68.892-72.696c37.851,0,58.878,20.427,61.683,47.463h-31.643
				c-3.204-15.621-13.819-24.232-30.441-24.232c-20.026,0-35.446,17.023-35.446,47.664c0,34.646,15.621,49.666,35.247,49.666
				c16.222,0,27.437-9.413,31.041-27.036h-28.238v-24.433H940.461z"/>
			<path fill="#FFFFFF" d="M1027.176-2082.632v113.751h-31.242v-113.751h-46.061v-24.433h123.364v24.433H1027.176z"/>
		</g>
	</g>
	<g display="inline">
		<g>
			<polygon fill="none" stroke="#FFFFFF" stroke-width="3" stroke-miterlimit="10" points="-575.685,-1149.712 -524.365,-1179.341 
				-473.044,-1149.712 -473.044,-1090.452 -524.365,-1060.822 -575.685,-1090.452 			"/>
			<polygon fill="none" stroke="#FFFFFF" stroke-width="3" stroke-miterlimit="10" points="-447.382,-982.469 -396.063,-1012.1 
				-344.743,-982.469 -344.743,-923.211 -396.063,-893.58 -447.382,-923.211 			"/>
		</g>
		<g>
			<circle fill="none" stroke="#FFFFFF" stroke-width="4" stroke-miterlimit="10" cx="-524.365" cy="-1120.083" r="9.876"/>
			
				<line fill="none" stroke="#FFFFFF" stroke-width="4" stroke-linecap="round" stroke-miterlimit="10" x1="-524.365" y1="-1110.206" x2="-524.365" y2="-893.58"/>
			<circle fill="none" stroke="#FFFFFF" stroke-width="4" stroke-miterlimit="10" cx="-396.063" cy="-952.84" r="9.876"/>
			
				<line fill="none" stroke="#FFFFFF" stroke-width="4" stroke-linecap="round" stroke-miterlimit="10" x1="-396.063" y1="-1179.341" x2="-396.063" y2="-962.717"/>
		</g>
		<g>
			
				<polyline fill="none" stroke="#FFFFFF" stroke-width="12" stroke-linecap="round" stroke-linejoin="round" stroke-miterlimit="10" points="
				-627.006,-1058.684 -627.006,-1177.201 -524.365,-1236.461 -421.724,-1177.201 -421.724,-1058.684 			"/>
			
				<line fill="none" stroke="#FFFFFF" stroke-width="12" stroke-linecap="round" stroke-linejoin="round" stroke-miterlimit="10" x1="-627.006" y1="-1058.684" x2="-550.024" y2="-1014.238"/>
			
				<line fill="none" stroke="#FFFFFF" stroke-width="12" stroke-linecap="round" stroke-linejoin="round" stroke-miterlimit="10" x1="-421.724" y1="-1058.684" x2="-498.703" y2="-1014.238"/>
			
				<polyline fill="none" stroke="#FFFFFF" stroke-width="12" stroke-linecap="round" stroke-linejoin="round" stroke-miterlimit="10" points="
				-293.422,-1014.238 -293.422,-895.721 -396.063,-836.461 -498.703,-895.721 -498.703,-1014.238 			"/>
			
				<line fill="none" stroke="#FFFFFF" stroke-width="12" stroke-linecap="round" stroke-linejoin="round" stroke-miterlimit="10" x1="-370.403" y1="-1058.684" x2="-293.422" y2="-1014.238"/>
		</g>
	</g>
</g>
</svg>
